<svg xmlns="http://www.w3.org/2000/svg" xmlns:xlink="http://www.w3.org/1999/xlink" version="1.1" id="Ebene_1" x="0px" y="0px" viewBox="0 0 1450 110" style="enable-background:new 0 0 1450 110;" xml:space="preserve">
    <style type="text/css">
        .st0{fill:#FFFFFF;}
        .st1{fill:#333333;}
        .st2{fill:#004191;}
        .st3{fill:#004191;stroke:#000000;stroke-width:3;stroke-miterlimit:10;}
        .st4{fill:#004191;stroke:#004191;stroke-width:3;stroke-miterlimit:10;}
        .st5{fill:none;stroke:#004191;stroke-width:2;stroke-miterlimit:10;}
        .st6{fill:#004191;stroke:#FFFFFF;stroke-width:3;stroke-miterlimit:10;}
        .st7{fill:none;stroke:#FFFFFF;stroke-width:2;stroke-miterlimit:10;}
        .st8{fill:#CBCBCB;}
        .st9{fill:#323232;}
        .st10{fill:none;stroke:#FFFFFF;stroke-miterlimit:10;}
        .st11{fill:none;stroke:#333333;stroke-miterlimit:10;}
        .st12{opacity:0.851;fill:#FFFFFF;enable-background:new    ;}
        .st13{fill:#272727;}
        .st14{opacity:0.851;fill:#272727;enable-background:new    ;}
        .st15{fill:#333333;stroke:#333333;stroke-width:0.5;stroke-miterlimit:10;}
        .st16{fill:none;stroke:#333333;stroke-width:0.5;stroke-miterlimit:10;}
        .st17{fill:#333333;stroke:#333333;stroke-width:0.25;stroke-miterlimit:10;}
        .st18{fill:#333333;stroke:#333333;stroke-width:0.5;stroke-linejoin:round;stroke-miterlimit:10;}
        .st19{fill:#FFFFFF;stroke:#FFFFFF;stroke-width:0.5;stroke-miterlimit:10;}
        .st20{fill:none;}
        .st21{fill:#FFFFFF;stroke:#FFFFFF;stroke-width:0.25;stroke-miterlimit:10;}
        .st22{fill:#FFFFFF;stroke:#FFFFFF;stroke-width:0.5;stroke-linejoin:round;stroke-miterlimit:10;}
    </style>
    <g>
        <path class="st0" d="M10.9,15.3c0.1,0.1,0.3,0.2,0.4,0.2c0.3,0,0.6-0.3,0.6-0.6c0-0.2-0.1-0.3-0.2-0.4L7.6,10l4.1-4.5   c0.1-0.1,0.2-0.3,0.2-0.4c0-0.3-0.3-0.6-0.6-0.6c-0.2,0-0.3,0.1-0.4,0.2L6.5,9.6C6.3,9.7,6.3,9.8,6.3,10c0,0.1,0.1,0.3,0.2,0.4   L10.9,15.3L10.9,15.3z M10,20c5.5,0,10-4.5,10-10S15.5,0,10,0S0,4.5,0,10S4.5,20,10,20z M10,1.1c4.9,0,8.9,4,8.9,8.9   s-4,8.9-8.9,8.9s-8.9-4-8.9-8.9S5.1,1.1,10,1.1z"/>
    </g>
    <g transform="translate(25)">
        <g>
            <path class="st0" d="M9.1,4.7C9,4.6,8.8,4.5,8.7,4.5c-0.3,0-0.6,0.3-0.6,0.6c0,0.2,0.1,0.3,0.2,0.4l4.1,4.5l-4.1,4.5    c-0.1,0.1-0.2,0.3-0.2,0.4c0,0.3,0.3,0.6,0.6,0.6c0.2,0,0.3-0.1,0.4-0.2l4.5-4.9c0.1-0.1,0.2-0.3,0.2-0.4c0-0.1-0.1-0.3-0.2-0.4    L9.1,4.7z M10,0C4.5,0,0,4.5,0,10s4.5,10,10,10s10-4.5,10-10S15.5,0,10,0z M10,18.9c-4.9,0-8.9-4-8.9-8.9s4-8.9,8.9-8.9    s8.9,4,8.9,8.9S14.9,18.9,10,18.9z"/>
        </g>
    </g>
    <g>
        <path class="st1" d="M10.9,55.3c0.1,0.1,0.3,0.2,0.4,0.2c0.3,0,0.6-0.3,0.6-0.6c0-0.2-0.1-0.3-0.2-0.4L7.6,50l4.1-4.5   c0.1-0.1,0.2-0.3,0.2-0.4c0-0.3-0.3-0.6-0.6-0.6c-0.2,0-0.3,0.1-0.4,0.2l-4.4,4.9c-0.2,0.1-0.2,0.2-0.2,0.4c0,0.1,0.1,0.3,0.2,0.4   L10.9,55.3L10.9,55.3z M10,60c5.5,0,10-4.5,10-10s-4.5-10-10-10S0,44.5,0,50S4.5,60,10,60z M10,41.1c4.9,0,8.9,4,8.9,8.9   s-4,8.9-8.9,8.9s-8.9-4-8.9-8.9S5.1,41.1,10,41.1z"/>
    </g>
    <g transform="translate(25)">
        <g>
            <path class="st1" d="M9.1,44.7c-0.1-0.1-0.3-0.2-0.4-0.2c-0.3,0-0.6,0.3-0.6,0.6c0,0.2,0.1,0.3,0.2,0.4l4.1,4.5l-4.1,4.5    c-0.1,0.1-0.2,0.3-0.2,0.4c0,0.3,0.3,0.6,0.6,0.6c0.2,0,0.3-0.1,0.4-0.2l4.5-4.9c0.1-0.1,0.2-0.3,0.2-0.4s-0.1-0.3-0.2-0.4    L9.1,44.7z M10,40C4.5,40,0,44.5,0,50s4.5,10,10,10s10-4.5,10-10S15.5,40,10,40z M10,58.9c-4.9,0-8.9-4-8.9-8.9s4-8.9,8.9-8.9    s8.9,4,8.9,8.9S14.9,58.9,10,58.9z"/>
        </g>
    </g>
    <g transform="translate(50)">
        <path class="st1" d="M5.3,0c0.2,0,0.4,0.1,0.5,0.2c0.3,0.3,0.3,0.7,0,1L1.8,5l4,3.8c0.3,0.3,0.3,0.7,0,1s-0.8,0.3-1.1,0L0.2,5.5   c-0.3-0.3-0.3-0.7,0-1l4.5-4.3C4.9,0.1,5.1,0,5.3,0z"/>
    </g>
    <g transform="translate(65)">
        <path class="st0" d="M5.3,0c0.2,0,0.4,0.1,0.5,0.2c0.3,0.3,0.3,0.7,0,1L1.8,5l4,3.8c0.3,0.3,0.3,0.7,0,1s-0.8,0.3-1.1,0L0.2,5.5   c-0.3-0.3-0.3-0.7,0-1l4.5-4.3C4.9,0.1,5.1,0,5.3,0z"/>
    </g>
    <g transform="translate(80)">
        <path class="st1" d="M0,0.8c0-0.2,0.1-0.4,0.2-0.5c0.3-0.3,0.7-0.3,1,0l3.8,4l3.8-4c0.3-0.3,0.7-0.3,1,0s0.3,0.8,0,1.1L5.5,5.8   c-0.3,0.3-0.7,0.3-1,0L0.2,1.3C0.1,1.1,0,0.9,0,0.8L0,0.8z"/>
    </g>
    <g transform="translate(95)">
        <path class="st0" d="M0,0.8c0-0.2,0.1-0.4,0.2-0.5c0.3-0.3,0.7-0.3,1,0l3.8,4l3.8-4c0.3-0.3,0.7-0.3,1,0s0.3,0.8,0,1.1L5.5,5.8   c-0.3,0.3-0.7,0.3-1,0L0.2,1.3C0.1,1.1,0,0.9,0,0.8L0,0.8z"/>
    </g>
    <g transform="translate(110)">
        <path class="st1" d="M0.8,10c-0.2,0-0.4-0.1-0.5-0.2C0,9.5,0,9.1,0.3,8.8l4-3.8l-4-3.8C0,0.9,0,0.5,0.3,0.2s0.8-0.3,1.1,0l4.5,4.3   c0.3,0.3,0.3,0.7,0,1L1.3,9.8C1.1,9.9,0.9,10,0.8,10z"/>
    </g>
    <g transform="translate(125)">
        <path class="st0" d="M0.8,10c-0.2,0-0.4-0.1-0.5-0.2C0,9.5,0,9.1,0.3,8.8l4-3.8l-4-3.8C0,0.9,0,0.5,0.3,0.2s0.8-0.3,1.1,0l4.5,4.3   c0.3,0.3,0.3,0.7,0,1L1.3,9.8C1.1,9.9,0.9,10,0.8,10z"/>
    </g>
    <g transform="translate(140)">
        <path class="st1" d="M7,14c-0.3,0-0.5-0.1-0.7-0.3l-6-6c-0.4-0.4-0.4-1,0-1.4l6-6c0.4-0.4,1-0.4,1.4,0s0.4,1,0,1.4L2.4,7l5.3,5.3   c0.4,0.4,0.4,1,0,1.4C7.5,13.9,7.3,14,7,14z"/>
    </g>
    <g transform="translate(155)">
        <path class="st0" d="M7,14c-0.3,0-0.5-0.1-0.7-0.3l-6-6c-0.4-0.4-0.4-1,0-1.4l6-6c0.4-0.4,1-0.4,1.4,0s0.4,1,0,1.4L2.4,7l5.3,5.3   c0.4,0.4,0.4,1,0,1.4C7.5,13.9,7.3,14,7,14z"/>
    </g>
    <g transform="translate(170)">
        <path class="st1" d="M14,1c0,0.3-0.1,0.5-0.3,0.7l-6,6c-0.4,0.4-1,0.4-1.4,0l-6-6c-0.4-0.4-0.4-1,0-1.4s1-0.4,1.4,0L7,5.6l5.3-5.3   c0.4-0.4,1-0.4,1.4,0C13.9,0.5,14,0.7,14,1z"/>
    </g>
    <g transform="translate(190)">
        <path class="st0" d="M14,1c0,0.3-0.1,0.5-0.3,0.7l-6,6c-0.4,0.4-1,0.4-1.4,0l-6-6c-0.4-0.4-0.4-1,0-1.4s1-0.4,1.4,0L7,5.6l5.3-5.3   c0.4-0.4,1-0.4,1.4,0C13.9,0.5,14,0.7,14,1L14,1z"/>
    </g>
    <g transform="translate(210)">
        <path class="st1" d="M1,14c-0.3,0-0.5-0.1-0.7-0.3c-0.4-0.4-0.4-1,0-1.4L5.6,7L0.3,1.7c-0.4-0.4-0.4-1,0-1.4s1-0.4,1.4,0l6,6   c0.4,0.4,0.4,1,0,1.4l-6,6C1.5,13.9,1.3,14,1,14z"/>
    </g>
    <g transform="translate(225)">
        <path class="st0" d="M1,14c-0.3,0-0.5-0.1-0.7-0.3c-0.4-0.4-0.4-1,0-1.4L5.6,7L0.3,1.7c-0.4-0.4-0.4-1,0-1.4s1-0.4,1.4,0l6,6   c0.4,0.4,0.4,1,0,1.4l-6,6C1.5,13.9,1.3,14,1,14z"/>
    </g>
    <g transform="translate(240)">
        <path class="st1" d="M0,7c0-0.3,0.1-0.5,0.3-0.7l6-6c0.4-0.4,1-0.4,1.4,0l6,6c0.4,0.4,0.4,1,0,1.4c-0.4,0.4-1,0.4-1.4,0L7,2.4   L1.7,7.7c-0.4,0.4-1,0.4-1.4,0C0.1,7.5,0,7.3,0,7z"/>
    </g>
    <g transform="translate(260)">
        <path class="st0" d="M0,7c0-0.3,0.1-0.5,0.3-0.7l6-6c0.4-0.4,1-0.4,1.4,0l6,6c0.4,0.4,0.4,1,0,1.4c-0.4,0.4-1,0.4-1.4,0L7,2.4   L1.7,7.7c-0.4,0.4-1,0.4-1.4,0C0.1,7.5,0,7.3,0,7z"/>
    </g>
    <g transform="translate(280)">
        <path class="st2" d="M13.2,11L2.5,22L0,19.4L8.2,11L0,2.6L2.5,0L13.2,11z M8.8,11l10.7,11l2.5-2.6L13.8,11L22,2.6L19.5,0L8.8,11z"/>
        <path class="st3" d="M5.4,4.9"/>
        <path class="st4" d="M5,5.5l9.3,8.8"/>
        <path class="st5" d="M8.1,7.2l6.6,6.3"/>
    </g>
    <g transform="translate(310)">
        <path class="st0" d="M13.2,11L2.5,22L0,19.4L8.2,11L0,2.6L2.5,0L13.2,11z M8.8,11l10.7,11l2.5-2.6L13.8,11L22,2.6L19.5,0L8.8,11z"/>
        <path class="st3" d="M5.4,4.9"/>
        <path class="st6" d="M5,5.5l9.3,8.8"/>
        <path class="st7" d="M8.1,7.2l6.6,6.3"/>
    </g>
    <g transform="translate(340)">
        <path class="st8" d="M29.8,0.2C29.6,0.1,29.2,0,28.7,0c-2.9,0-10.4,2.1-14.4,6.1c-1,1-4.1,3.9-4.9,4.9c-2.4,0.6-5.8,1.9-7.7,3.9   c0,0,2.3,0,5.2,1.8c-0.4,1.7,0.1,3.5,1.6,4.9c1.1,1.1,2.5,1.7,3.8,1.7c0.4,0,0.8,0,1.1-0.1c1.8,2.9,1.8,5.2,1.8,5.2   c1.9-1.9,3.2-5.4,3.9-7.7c1-0.7,3.9-3.9,4.8-4.8C28.7,11,30.7,1.2,29.8,0.2 M17.8,20.2c-0.5,1.8-1.2,3.5-1.9,4.8   c-0.3-0.8-0.7-1.7-1.3-2.7c-0.3-0.4-0.7-0.6-1.1-0.6c-0.1,0-0.2,0-0.3,0c-0.3,0.1-0.5,0.1-0.8,0.1c-1,0-2-0.4-2.8-1.3   c-1.1-1.1-1.5-2.4-1.2-3.6c0.1-0.6-0.1-1.2-0.6-1.5c-1-0.6-1.9-1-2.7-1.3c1.3-0.7,3-1.4,4.8-1.9H10l7.9,7.9   C17.8,20.2,17.8,20.2,17.8,20.2 M22.9,14.8c-0.3,0.3-0.7,0.7-1.2,1.2c-0.9,0.9-2.2,2.3-3,3.1l-7.8-7.8c0.7-0.8,2.2-2.2,3.1-3   c0.5-0.5,1-0.9,1.2-1.2C18.9,3.4,26,1.4,28.6,1.4C28.6,3.6,26.8,11,22.9,14.8 M5.3,16.8L0,30l13.3-5.3c-0.2,0-0.5,0-0.7,0   C8.5,24.8,4.8,20.9,5.3,16.8 M2.4,27.6l2.5-6.2c0.3,0.6,0.7,1.2,1.2,1.7c0.7,0.8,1.6,1.5,2.5,2L2.4,27.6L2.4,27.6z M14.3,10.9   c-0.4,0-0.7,0.3-0.7,0.7s0.3,0.7,0.7,0.7S15,12,15,11.6S14.7,10.9,14.3,10.9 M18.4,16.4c0.4,0,0.7-0.3,0.7-0.7   c0-0.4-0.3-0.7-0.7-0.7s-0.7,0.3-0.7,0.7C17.7,16.1,18,16.4,18.4,16.4 M22.5,9.5c1.1,0,2-0.9,2-2s-0.9-2-2-2s-2,0.9-2,2   S21.4,9.6,22.5,9.5 M22.5,6.8c0.4,0,0.7,0.3,0.7,0.7s-0.3,0.7-0.7,0.7c-0.4,0-0.7-0.3-0.7-0.7S22.1,6.8,22.5,6.8 M16.4,14.3   c0.4,0,0.7-0.3,0.7-0.7s-0.3-0.7-0.7-0.7s-0.7,0.3-0.7,0.7S16,14.3,16.4,14.3"/>
    </g>
    <g transform="translate(375)">
        <path class="st0" d="M29.8,0.2C29.6,0.1,29.2,0,28.7,0c-2.9,0-10.4,2.1-14.4,6.1c-1,1-4.1,3.9-4.9,4.9c-2.4,0.6-5.8,1.9-7.7,3.9   c0,0,2.3,0,5.2,1.8c-0.4,1.7,0.1,3.5,1.6,4.9c1.1,1.1,2.5,1.7,3.8,1.7c0.4,0,0.8,0,1.1-0.1c1.8,2.9,1.8,5.2,1.8,5.2   c1.9-1.9,3.2-5.4,3.9-7.7c1-0.7,3.9-3.9,4.8-4.8C28.7,11,30.7,1.2,29.8,0.2 M17.8,20.2c-0.5,1.8-1.2,3.5-1.9,4.8   c-0.3-0.8-0.7-1.7-1.3-2.7c-0.3-0.4-0.7-0.6-1.1-0.6c-0.1,0-0.2,0-0.3,0c-0.3,0.1-0.5,0.1-0.8,0.1c-1,0-2-0.4-2.8-1.3   c-1.1-1.1-1.5-2.4-1.2-3.6c0.1-0.6-0.1-1.2-0.6-1.5c-1-0.6-1.9-1-2.7-1.3c1.3-0.7,3-1.4,4.8-1.9H10l7.9,7.9   C17.8,20.2,17.8,20.2,17.8,20.2 M22.9,14.8c-0.3,0.3-0.7,0.7-1.2,1.2c-0.9,0.9-2.2,2.3-3,3.1l-7.8-7.8c0.7-0.8,2.2-2.2,3.1-3   c0.5-0.5,1-0.9,1.2-1.2C18.9,3.4,26,1.4,28.6,1.4C28.6,3.6,26.8,11,22.9,14.8 M5.3,16.8L0,30l13.3-5.3c-0.2,0-0.5,0-0.7,0   C8.5,24.8,4.8,20.9,5.3,16.8 M2.4,27.6l2.5-6.2c0.3,0.6,0.7,1.2,1.2,1.7c0.7,0.8,1.6,1.5,2.5,2L2.4,27.6L2.4,27.6z M14.3,10.9   c-0.4,0-0.7,0.3-0.7,0.7s0.3,0.7,0.7,0.7S15,12,15,11.6S14.7,10.9,14.3,10.9 M18.4,16.4c0.4,0,0.7-0.3,0.7-0.7   c0-0.4-0.3-0.7-0.7-0.7s-0.7,0.3-0.7,0.7C17.7,16.1,18,16.4,18.4,16.4 M22.5,9.5c1.1,0,2-0.9,2-2s-0.9-2-2-2s-2,0.9-2,2   S21.4,9.5,22.5,9.5 M22.5,6.8c0.4,0,0.7,0.3,0.7,0.7s-0.3,0.7-0.7,0.7c-0.4,0-0.7-0.3-0.7-0.7S22.1,6.8,22.5,6.8 M16.4,14.3   c0.4,0,0.7-0.3,0.7-0.7S16.7,13,16.4,13s-0.7,0.3-0.7,0.7S16,14.3,16.4,14.3"/>
    </g>
    <g transform="translate(410)">
        <path class="st8" d="M28.6,2.7h-8.2c0-1.5-1.2-2.7-2.7-2.7h-5.5c-1.5,0-2.7,1.2-2.7,2.7H1.4C0.6,2.7,0,3.3,0,4.1v6.8   c0,0.8,0.6,1.4,1.4,1.4v10.9c0,0.8,0.6,1.4,1.4,1.4h24.5c0.8,0,1.4-0.6,1.4-1.4V12.3c0.8,0,1.4-0.6,1.4-1.4V4.1   C30,3.3,29.4,2.7,28.6,2.7 M12.3,1.4h5.5c0.8,0,1.4,0.6,1.4,1.4H11C10.9,2,11.5,1.4,12.3,1.4 M27.3,23.2H2.7V12.3h2.7v1.4   c0,0.8,0.6,1.4,1.4,1.4h2.7c0.8,0,1.4-0.6,1.4-1.4v-1.4h8.2v1.4c0,0.8,0.6,1.4,1.4,1.4h2.7c0.8,0,1.4-0.6,1.4-1.4v-1.4h2.7V23.2   L27.3,23.2z M6.8,9.5h2.7v4.1H6.8V9.5L6.8,9.5z M20.5,9.5h2.7v4.1h-2.7V9.5L20.5,9.5z M28.6,10.9h-4.1V9.5c0-0.8-0.6-1.4-1.4-1.4   h-2.7c-0.8,0-1.4,0.6-1.4,1.4v1.4h-8.2V9.5c0-0.8-0.6-1.4-1.4-1.4H6.8C6,8.1,5.4,8.7,5.4,9.5v1.4h-4V4.1h27.3L28.6,10.9L28.6,10.9z   "/>
    </g>
    <g transform="translate(445)">
        <path class="st0" d="M28.6,2.7h-8.2c0-1.5-1.2-2.7-2.7-2.7h-5.5c-1.5,0-2.7,1.2-2.7,2.7H1.4C0.6,2.7,0,3.3,0,4.1v6.8   c0,0.8,0.6,1.4,1.4,1.4v10.9c0,0.8,0.6,1.4,1.4,1.4h24.5c0.8,0,1.4-0.6,1.4-1.4V12.3c0.8,0,1.4-0.6,1.4-1.4V4.1   C30,3.3,29.4,2.7,28.6,2.7 M12.3,1.4h5.5c0.8,0,1.4,0.6,1.4,1.4H11C10.9,2,11.5,1.4,12.3,1.4 M27.3,23.2H2.7V12.3h2.7v1.4   c0,0.8,0.6,1.4,1.4,1.4h2.7c0.8,0,1.4-0.6,1.4-1.4v-1.4h8.2v1.4c0,0.8,0.6,1.4,1.4,1.4h2.7c0.8,0,1.4-0.6,1.4-1.4v-1.4h2.7V23.2   L27.3,23.2L27.3,23.2z M6.8,9.5h2.7v4.1H6.8V9.5L6.8,9.5z M20.5,9.5h2.7v4.1h-2.7V9.5L20.5,9.5z M28.6,10.9h-4.1V9.5   c0-0.8-0.6-1.4-1.4-1.4h-2.7c-0.8,0-1.4,0.6-1.4,1.4v1.4h-8.2V9.5c0-0.8-0.6-1.4-1.4-1.4H6.8C6,8.1,5.4,8.7,5.4,9.5v1.4h-4V4.1   h27.3L28.6,10.9L28.6,10.9z"/>
    </g>
    <g transform="translate(480)">
        <path class="st8" d="M3.3,18.4c0.9-0.3,2.5-1.3,2.5-3.6c0-2.1-0.7-3-1.1-3.5v-0.1l0,0c0-0.1-0.1-0.4,0.1-1.2c0.1-0.3,0-0.6-0.1-0.9   C4.4,8.4,3.9,7.3,4.2,6.4C4.8,5,5.1,4.8,5.7,4.6c0.1,0,0.1-0.1,0.2-0.1c0.2-0.1,0.9-0.4,1.6-0.4c0.3,0,0.6,0.1,0.8,0.2   C8.4,4,8.5,3.8,8.6,3.6c0-0.2,0.1-0.4,0.2-0.6C8.4,2.8,7.9,2.7,7.5,2.7c-1,0-1.9,0.3-2.3,0.6C4.1,3.8,3.6,4.2,3,5.9   C2.4,7.3,3.1,8.8,3.4,9.6C3,11.4,3.6,12,3.6,12c0.3,0.4,0.8,1,0.8,2.8c0,2-1.5,2.3-1.5,2.3c-1.2,0.4-2.9,1.3-2.9,4   c0,0,0,0.7,0.7,0.7h3c0.2-0.5,0.4-1,0.6-1.4h-3C1.6,19.2,2.4,18.7,3.3,18.4 M27.1,17.1c0,0-1.5-0.3-1.5-2.3c0-1.7,0.5-2.4,0.8-2.8   c0,0,0.6-0.6,0.2-2.4c0.4-0.8,1.1-2.3,0.5-3.7c-0.7-1.7-1.1-2.1-2.2-2.6c-0.4-0.2-1.3-0.6-2.3-0.6c-0.5,0-0.9,0.1-1.4,0.3   c0.2,0.4,0.3,0.9,0.4,1.3c0,0,0,0,0.1,0c0.2-0.1,0.5-0.2,0.9-0.2c0.7,0,1.4,0.3,1.6,0.4c0.1,0,0.1,0.1,0.2,0.1   c0.7,0.3,0.9,0.4,1.5,1.9c0.4,0.8-0.1,2-0.4,2.6c-0.1,0.3-0.2,0.6-0.1,0.9c0.2,0.8,0.1,1.1,0.1,1.2l0,0v0.1   c-0.4,0.5-1.1,1.4-1.1,3.5c0,2.3,1.6,3.4,2.5,3.6c0.9,0.3,1.7,0.8,1.9,2.1h-2.9c0.3,0.4,0.5,0.9,0.6,1.4h3c0.7,0,0.7-0.7,0.7-0.7   C30,18.4,28.3,17.5,27.1,17.1 M20.4,18.6c0,0-2.4-0.6-2.4-3.1c0-2.2,1-3,1.4-3.6c0,0,0.8-0.7,0.3-2.9c0.9-1.2,1.2-3.2,0.1-5.7   c-0.6-1.5-1.1-2.2-2-2.7c-0.6-0.5-1.3-0.6-2-0.6c-1.2,0-2.4,0.4-2.9,0.7C11.5,1.3,10.6,1.9,9.8,4C9.1,5.9,10,7.8,10.4,8.8   c-0.5,2.3,0.2,3,0.2,3c0.4,0.5,1.4,1.3,1.4,3.6c0,2.6-2.4,3.1-2.4,3.1c-1.6,0.6-4.8,1.6-4.8,5.3c0,0,0,0.7,0.7,0.7h19.1   c0.7,0,0.7-0.7,0.7-0.7C25.2,20.2,22,19.1,20.4,18.6 M6.2,23.2c0.3-1.9,2-2.7,3.7-3.3H10c1.2-0.3,3.4-1.6,3.4-4.4   c0-2.4-1-3.5-1.5-4.2c-0.1-0.1-0.2-0.3-0.2-0.3c0-0.1-0.2-0.6,0.1-1.9c0.1-0.6-0.1-0.9-0.1-0.9c-0.4-0.8-1.1-2.4-0.5-3.7   c0.7-1.7,1.3-2.1,2.4-2.6c0.1,0,0.1-0.1,0.2-0.1c0.2-0.1,1.1-0.5,2.1-0.5c0.5,0,0.9,0.1,1.3,0.3s0.8,0.7,1.4,2.1   c1.1,2.5,0.4,3.9,0.1,4.4c-0.2,0.3-0.3,0.7-0.2,1.1c0.3,1.1,0.1,1.6,0,1.7c0,0-0.2,0.2-0.3,0.3c-0.5,0.6-1.5,1.8-1.5,4.2   c0,2.8,2.2,4.1,3.4,4.4h0.1c1.7,0.6,3.4,1.4,3.7,3.3L6.2,23.2L6.2,23.2z"/>
    </g>
    <g transform="translate(515)">
        <path class="st0" d="M3.3,18.4c0.9-0.3,2.5-1.3,2.5-3.6c0-2.1-0.7-3-1.1-3.5v-0.1l0,0c0-0.1-0.1-0.4,0.1-1.2c0.1-0.3,0-0.6-0.1-0.9   C4.4,8.4,3.9,7.3,4.2,6.4C4.8,5,5.1,4.8,5.7,4.6c0.1,0,0.1-0.1,0.2-0.1c0.2-0.1,0.9-0.4,1.6-0.4c0.3,0,0.6,0.1,0.8,0.2   C8.4,4,8.5,3.8,8.6,3.6c0-0.2,0.1-0.4,0.2-0.6C8.4,2.8,7.9,2.7,7.5,2.7c-1,0-1.9,0.3-2.3,0.6C4.1,3.8,3.6,4.2,3,5.9   C2.4,7.3,3.1,8.8,3.4,9.6C3,11.4,3.6,12,3.6,12c0.3,0.4,0.8,1,0.8,2.8c0,2-1.5,2.3-1.5,2.3c-1.2,0.4-2.9,1.3-2.9,4   c0,0,0,0.7,0.7,0.7h3c0.2-0.5,0.4-1,0.6-1.4h-3C1.6,19.2,2.4,18.7,3.3,18.4 M27.1,17.1c0,0-1.5-0.3-1.5-2.3c0-1.7,0.5-2.4,0.8-2.8   c0,0,0.6-0.6,0.2-2.4c0.4-0.8,1.1-2.3,0.5-3.7c-0.7-1.7-1.1-2.1-2.2-2.6c-0.4-0.2-1.3-0.6-2.3-0.6c-0.5,0-0.9,0.1-1.4,0.3   c0.2,0.4,0.3,0.9,0.4,1.3c0,0,0,0,0.1,0c0.2-0.1,0.5-0.2,0.9-0.2c0.7,0,1.4,0.3,1.6,0.4c0.1,0,0.1,0.1,0.2,0.1   c0.7,0.3,0.9,0.4,1.5,1.9c0.4,0.8-0.1,2-0.4,2.6c-0.1,0.3-0.2,0.6-0.1,0.9c0.2,0.8,0.1,1.1,0.1,1.2l0,0v0.1   c-0.4,0.5-1.1,1.4-1.1,3.5c0,2.4,1.6,3.4,2.5,3.6c0.9,0.3,1.7,0.8,1.9,2.1h-2.9c0.3,0.4,0.5,0.9,0.6,1.4h3c0.7,0,0.7-0.7,0.7-0.7   C30,18.4,28.3,17.5,27.1,17.1 M20.4,18.6c0,0-2.4-0.6-2.4-3.1c0-2.2,1-3,1.4-3.6c0,0,0.8-0.7,0.3-2.9c0.9-1.2,1.2-3.2,0.1-5.7   c-0.6-1.4-1.1-2.2-2-2.7c-0.6-0.5-1.3-0.6-2-0.6c-1.2,0-2.4,0.4-2.9,0.7C11.5,1.3,10.6,1.9,9.8,4C9.1,5.9,10,7.8,10.4,8.8   c-0.5,2.3,0.2,3,0.2,3c0.4,0.5,1.4,1.3,1.4,3.6c0,2.6-2.4,3.1-2.4,3.1c-1.6,0.6-4.8,1.6-4.8,5.3c0,0,0,0.7,0.7,0.7h19.1   c0.7,0,0.7-0.7,0.7-0.7C25.2,20.2,22,19.1,20.4,18.6 M6.2,23.2c0.3-1.9,2-2.7,3.7-3.3H10c1.2-0.3,3.4-1.6,3.4-4.4   c0-2.4-1-3.5-1.5-4.2c-0.1-0.1-0.2-0.3-0.2-0.3c0-0.1-0.2-0.6,0.1-1.9c0.1-0.6-0.1-0.9-0.1-0.9c-0.4-0.8-1.1-2.4-0.5-3.7   c0.7-1.7,1.3-2.1,2.4-2.6c0.1,0,0.1-0.1,0.2-0.1c0.2-0.1,1.1-0.5,2.1-0.5c0.5,0,0.9,0.1,1.3,0.3s0.8,0.7,1.4,2.1   c1.1,2.5,0.4,3.9,0.1,4.4c-0.2,0.3-0.3,0.7-0.2,1.1c0.3,1.1,0.1,1.6,0.1,1.7c0,0-0.2,0.2-0.3,0.3c-0.5,0.6-1.5,1.8-1.5,4.2   c0,2.8,2.2,4.1,3.4,4.4h0.1c1.7,0.6,3.4,1.4,3.7,3.3L6.2,23.2L6.2,23.2z"/>
    </g>
    <g transform="translate(550)">
        <path class="st8" d="M24.5,0c-1.5,0-2.9,0.6-3.9,1.6L2.3,20L0,30l10-2.3L28.4,9.3c1-1,1.6-2.3,1.6-3.9C30,2.4,27.6,0,24.5,0    M8.9,26.4l-4.8,1.1v-1.7H2.4L3.5,21h5.3L8.9,26.4L8.9,26.4z M10.2,25.6v-5.1c0-0.4-0.3-0.7-0.7-0.7H4.4L19.1,5.1l5.8,5.8   L10.2,25.6L10.2,25.6z M27.4,8.3l-1.6,1.6L20,4.1l1.6-1.6c0,0,1.1-1.2,2.9-1.2c2.3,0,4.1,1.8,4.1,4.1C28.6,6.6,28.2,7.6,27.4,8.3"/>
    </g>
    <g transform="translate(585)">
        <path class="st0" d="M24.5,0c-1.5,0-2.9,0.6-3.9,1.6L2.3,20L0,30l10-2.3L28.4,9.3c1-1,1.6-2.3,1.6-3.9C30,2.4,27.6,0,24.5,0    M8.9,26.4l-4.8,1.1v-1.7H2.4L3.5,21h5.3L8.9,26.4L8.9,26.4z M10.2,25.6v-5.1c0-0.4-0.3-0.7-0.7-0.7H4.4L19.1,5.1l5.8,5.8   L10.2,25.6L10.2,25.6z M27.4,8.3l-1.6,1.6L20,4.1l1.6-1.6c0,0,1.1-1.2,2.9-1.2c2.3,0,4.1,1.8,4.1,4.1C28.6,6.6,28.2,7.6,27.4,8.3"/>
    </g>
    <g transform="translate(620)">
        <path class="st8" d="M30,6.1c0-0.3-0.2-0.5-0.4-0.6l0,0l0,0l0,0L15.3,0.1l0,0C15.2,0,15.1,0,15,0s-0.2,0-0.3,0.1l0,0L0.4,5.5l0,0   l0,0l0,0C0.2,5.6,0,5.9,0,6.1c0,0.3,0.2,0.5,0.4,0.6l0,0l0,0l0,0l1.3,0.5l-0.9,6.5C0.3,13.9,0,14.4,0,15c0,0.8,0.6,1.4,1.4,1.4   s1.4-0.6,1.4-1.4c0-0.4-0.2-0.8-0.5-1.1L3,7.8l2.3,0.9l-1.2,9.7l0,0v0.1c0,0.4,0.3,0.7,0.7,0.7c0.1,0,0.1,0,0.1,0l0,0l5.1-1.3   l4.5,3.9l0,0c0.1,0.1,0.3,0.1,0.4,0.1c0.1,0,0.3-0.1,0.4-0.1l0,0l5.2-3.9l5.2,1.3l0,0h0.1c0.4,0,0.7-0.3,0.7-0.7v-0.1l0,0l-1.8-9.7   l4.8-1.8l0,0l0,0l0,0C29.8,6.6,30,6.4,30,6.1 M25,17.5l-4.4-1.1l0,0h-0.1c-0.1,0-0.3,0.1-0.4,0.1l0,0L15,20.3l-4.4-3.8l0,0   c-0.1-0.1-0.3-0.1-0.4-0.1c-0.1,0-0.1,0-0.1,0l0,0l-4.5,1.1l1-8.4l8.1,3.1l0,0c0.1,0,0.2,0.1,0.3,0.1s0.2,0,0.3-0.1l0,0l8.2-3.1   L25,17.5L25,17.5z M15,10.9L2.6,6.1L15,1.4l12.4,4.7L15,10.9z"/>
    </g>
    <g transform="translate(620)">
        <path class="st2" d="M30,36.1c0-0.3-0.2-0.5-0.4-0.6l0,0l0,0l0,0l-14.3-5.4l0,0C15.2,30,15.1,30,15,30s-0.2,0-0.3,0.1l0,0L0.4,35.5   l0,0l0,0l0,0C0.2,35.6,0,35.9,0,36.1c0,0.3,0.2,0.5,0.4,0.6l0,0l0,0l0,0l1.3,0.5l-0.9,6.5C0.3,43.9,0,44.4,0,45   c0,0.8,0.6,1.4,1.4,1.4s1.4-0.6,1.4-1.4c0-0.4-0.2-0.8-0.5-1.1L3,37.8l2.3,0.9l-1.2,9.7l0,0v0.1c0,0.4,0.3,0.7,0.7,0.7   c0.1,0,0.1,0,0.1,0l0,0l5.1-1.3l4.5,3.9l0,0c0.1,0.1,0.3,0.1,0.4,0.1c0.1,0,0.3-0.1,0.4-0.1l0,0l5.2-3.9l5.2,1.3l0,0h0.1   c0.4,0,0.7-0.3,0.7-0.7v-0.1l0,0l-1.8-9.7l4.8-1.8l0,0l0,0l0,0C29.8,36.6,30,36.4,30,36.1 M25,47.5l-4.4-1.1l0,0h-0.1   c-0.1,0-0.3,0.1-0.4,0.1l0,0L15,50.3l-4.4-3.8l0,0c-0.1-0.1-0.3-0.1-0.4-0.1c-0.1,0-0.1,0-0.1,0l0,0l-4.5,1.1l1-8.4l8.1,3.1l0,0   c0.1,0,0.2,0.1,0.3,0.1s0.2,0,0.3-0.1l0,0l8.2-3.1L25,47.5L25,47.5z M15,40.9L2.6,36.1L15,31.4l12.4,4.7L15,40.9z"/>
    </g>
    <g transform="translate(655)">
        <path class="st0" d="M30,6.1c0-0.3-0.2-0.5-0.4-0.6l0,0l0,0l0,0L15.3,0.1l0,0C15.2,0,15.1,0,15,0s-0.2,0-0.3,0.1l0,0L0.4,5.5l0,0   l0,0l0,0C0.2,5.6,0,5.9,0,6.1c0,0.3,0.2,0.5,0.4,0.6l0,0l0,0l0,0l1.3,0.5l-0.9,6.5C0.3,13.9,0,14.4,0,15c0,0.8,0.6,1.4,1.4,1.4   s1.4-0.6,1.4-1.4c0-0.4-0.2-0.8-0.5-1.1L3,7.8l2.3,0.9l-1.2,9.7l0,0v0.1c0,0.4,0.3,0.7,0.7,0.7c0.1,0,0.1,0,0.1,0l0,0l5.1-1.3   l4.5,3.9l0,0c0.1,0.1,0.3,0.1,0.4,0.1c0.1,0,0.3-0.1,0.4-0.1l0,0l5.2-3.9l5.2,1.3l0,0h0.1c0.4,0,0.7-0.3,0.7-0.7v-0.1l0,0l-1.8-9.7   l4.8-1.8l0,0l0,0l0,0C29.8,6.6,30,6.4,30,6.1 M25,17.5l-4.4-1.1l0,0h-0.1c-0.1,0-0.3,0.1-0.4,0.1l0,0L15,20.3l-4.4-3.8l0,0   c-0.1-0.1-0.3-0.1-0.4-0.1c-0.1,0-0.1,0-0.1,0l0,0l-4.5,1.1l1-8.4l8.1,3.1l0,0c0.1,0,0.2,0.1,0.3,0.1s0.2,0,0.3-0.1l0,0l8.2-3.1   L25,17.5L25,17.5z M15,10.9L2.6,6.1L15,1.4l12.4,4.7L15,10.9z"/>
    </g>
    <g transform="translate(655)">
        <path class="st1" d="M30,36.1c0-0.3-0.2-0.5-0.4-0.6l0,0l0,0l0,0l-14.3-5.4l0,0C15.2,30,15.1,30,15,30s-0.2,0-0.3,0.1l0,0L0.4,35.5   l0,0l0,0l0,0C0.2,35.6,0,35.9,0,36.1c0,0.3,0.2,0.5,0.4,0.6l0,0l0,0l0,0l1.3,0.5l-0.9,6.5C0.3,43.9,0,44.4,0,45   c0,0.8,0.6,1.4,1.4,1.4s1.4-0.6,1.4-1.4c0-0.4-0.2-0.8-0.5-1.1L3,37.8l2.3,0.9l-1.2,9.7l0,0v0.1c0,0.4,0.3,0.7,0.7,0.7   c0.1,0,0.1,0,0.1,0l0,0l5.1-1.3l4.5,3.9l0,0c0.1,0.1,0.3,0.1,0.4,0.1c0.1,0,0.3-0.1,0.4-0.1l0,0l5.2-3.9l5.2,1.3l0,0h0.1   c0.4,0,0.7-0.3,0.7-0.7v-0.1l0,0l-1.8-9.7l4.8-1.8l0,0l0,0l0,0C29.8,36.6,30,36.4,30,36.1 M25,47.5l-4.4-1.1l0,0h-0.1   c-0.1,0-0.3,0.1-0.4,0.1l0,0L15,50.3l-4.4-3.8l0,0c-0.1-0.1-0.3-0.1-0.4-0.1c-0.1,0-0.1,0-0.1,0l0,0l-4.5,1.1l1-8.4l8.1,3.1l0,0   c0.1,0,0.2,0.1,0.3,0.1s0.2,0,0.3-0.1l0,0l8.2-3.1L25,47.5L25,47.5z M15,40.9L2.6,36.1L15,31.4l12.4,4.7L15,40.9z"/>
    </g>
    <g transform="translate(690)">
        <path class="st9" d="M20.3,15.9L20.3,15.9c0-0.4-0.2-0.7-0.4-1c-0.1-0.1-0.2-0.1-0.2-0.2l-3.9-3c-0.3-0.2-0.6-0.4-1-0.4   c-0.3,0-0.6,0.1-0.8,0.3l-1.1,1.1l0,0c-0.2,0.2-0.4,0.3-0.7,0.3s-0.6-0.1-0.8-0.4l0,0c-1.5-1.1-2.8-2.4-3.9-3.9l0,0   C7.2,8.6,7.1,8.3,7.1,8c0-0.3,0.1-0.5,0.3-0.7l0,0l1.1-1.1C8.7,6,8.8,5.8,8.8,5.5c0-0.4-0.2-0.7-0.4-1l-3-3.8   C5.3,0.6,5.2,0.5,5.1,0.4C4.9,0.2,4.5,0,4.2,0C2.3,0,0,2.1,0,4.8c0,0.7,0.2,1.4,0.5,2l0,0c2.8,5.4,7.4,10,12.9,12.7l0,0   c0.6,0.3,1.3,0.5,2.1,0.5C18.1,20,20.3,17.7,20.3,15.9L20.3,15.9L20.3,15.9z M15.5,19.1c-0.6,0-1.1-0.1-1.7-0.4   c-0.1,0-0.1,0-0.2-0.1C8.4,16,4,11.7,1.4,6.6c0-0.1,0-0.1-0.1-0.2C1.1,5.9,0.9,5.3,0.9,4.8c0-2.2,2-3.9,3.2-3.9   C4.3,0.9,4.4,1,4.5,1c0,0,0,0,0.1,0.1l0.1,0.1l3,3.8c0,0,0,0.1,0.1,0.1c0.1,0.1,0.1,0.2,0.1,0.3c0,0.1,0,0.2-0.1,0.2l-1,1l0,0   C6.4,7,6.2,7.5,6.2,8s0.2,0.9,0.5,1.3v0.1c1.1,1.5,2.5,2.9,4.1,4.1l0,0c0.3,0.3,0.8,0.5,1.3,0.5s0.9-0.2,1.3-0.5c0,0,0,0,0.1,0l1-1   c0.1,0,0.1-0.1,0.2-0.1c0.2,0,0.3,0.1,0.3,0.1l0.1,0.1l3.9,3c0,0,0,0,0.1,0.1l0.1,0.1c0,0.1,0.1,0.2,0.1,0.3v0.1   C19.3,17.2,17.7,19.1,15.5,19.1L15.5,19.1z"/>
    </g>
    <g transform="translate(720)">
        <path class="st9" d="M0,0"/>
        <g>
            <path class="st0" d="M20.3,15.9L20.3,15.9c0-0.4-0.2-0.7-0.4-1c-0.1-0.1-0.2-0.1-0.2-0.2l-3.9-3c-0.3-0.2-0.6-0.4-1-0.4    c-0.3,0-0.6,0.1-0.8,0.3l-1.1,1.1l0,0c-0.2,0.2-0.4,0.3-0.7,0.3s-0.6-0.2-0.8-0.4l0,0c-1.5-1.1-2.8-2.4-3.9-3.9l0,0    C7.2,8.6,7.1,8.3,7.1,8c0-0.3,0.1-0.5,0.3-0.7l1.1-1.1C8.7,6,8.8,5.8,8.8,5.5c0-0.4-0.2-0.7-0.4-1l-3-3.8C5.3,0.6,5.2,0.5,5.1,0.4    C4.9,0.2,4.5,0,4.2,0C2.3,0,0,2.1,0,4.8c0,0.7,0.2,1.4,0.5,2l0,0c2.8,5.4,7.4,10,12.9,12.7l0,0c0.6,0.3,1.3,0.5,2.1,0.5    C18.1,20,20.3,17.7,20.3,15.9L20.3,15.9L20.3,15.9z M15.5,19.1c-0.6,0-1.1-0.1-1.7-0.4c-0.1,0-0.1,0-0.2-0.1    C8.4,16,4,11.7,1.4,6.6c0-0.1,0-0.1-0.1-0.2C1.1,5.9,0.9,5.3,0.9,4.8c0-2.2,2-3.9,3.2-3.9C4.3,0.9,4.4,1,4.5,1c0,0,0,0,0.1,0.1    l0.1,0.1l3,3.8c0,0,0,0.1,0.1,0.1c0.1,0.1,0.1,0.2,0.1,0.3c0,0.1,0,0.2-0.1,0.2l-1,1l0,0C6.4,7,6.2,7.5,6.2,8s0.2,0.9,0.5,1.3    c0,0,0,0,0,0.1c1.1,1.5,2.5,2.9,4.1,4.1l0,0c0.3,0.3,0.8,0.5,1.3,0.5s0.9-0.2,1.3-0.5c0,0,0,0,0.1,0l1-1c0.1,0,0.1-0.1,0.2-0.1    c0.2,0,0.3,0.1,0.3,0.1l0.1,0.1l3.9,3c0,0,0,0,0.1,0.1l0.1,0.1c0,0.1,0.1,0.2,0.1,0.3v0.1C19.3,17.2,17.6,19.1,15.5,19.1    L15.5,19.1z"/>
        </g>
        <path class="st0" d="M0,0"/>
    </g>
    <g transform="translate(750)">
        <path class="st1" d="M10.8,4.2l-4.9-4C5.7,0,5.3,0,5.1,0.1l-4.9,4C0,4.4-0.1,4.7,0.1,5C0.4,5.2,0.7,5.3,1,5.1L1.1,5v4.7   c0,0.2,0.2,0.4,0.4,0.4h2.8V6h2.6v4h2.8c0.2,0,0.4-0.2,0.4-0.4V5L10,5.1c0.1,0.1,0.3,0.1,0.4,0.1c0.2,0,0.3-0.1,0.5-0.2   C11.1,4.7,11,4.4,10.8,4.2z"/>
    </g>
    <g transform="translate(770)">
        <path class="st1" d="M11.3,14.1c-0.3,0-0.5,0-0.6-0.1s-0.2-0.3-0.2-0.5c0-0.1,0-0.2,0.1-0.4c0-0.2,0.1-0.4,0.1-0.5l0.5-1.8   c0.1-0.2,0.1-0.4,0.1-0.6c0-0.2,0-0.3,0-0.4c0-0.4-0.1-0.7-0.4-0.9c-0.3-0.2-0.7-0.4-1.2-0.4c-0.3,0-0.6,0.1-0.9,0.1   C8.5,8.7,8.1,8.8,7.8,9L7.7,9.5c0.1,0,0.2-0.1,0.4-0.1c0.1,0,0.3-0.1,0.4-0.1c0.3,0,0.5,0,0.6,0.1s0.1,0.3,0.1,0.5   c0,0.1,0,0.3,0,0.4c0,0.2-0.1,0.3-0.1,0.5l-0.5,1.9c0,0.2-0.1,0.4-0.1,0.5c0,0.2,0,0.3,0,0.5c0,0.4,0.1,0.7,0.4,0.9   c0.3,0.2,0.7,0.4,1.2,0.4c0.3,0,0.6,0,0.9-0.1c0.3-0.1,0.6-0.2,1-0.4l0.1-0.6c-0.1,0-0.2,0.1-0.4,0.1   C11.6,14.1,11.5,14.1,11.3,14.1L11.3,14.1z M11,5c-0.4,0-0.7,0.1-0.9,0.3C9.8,5.6,9.7,5.8,9.7,6.2c0,0.3,0.1,0.6,0.4,0.8   c0.3,0.2,0.6,0.3,0.9,0.3c0.4,0,0.7-0.1,0.9-0.3c0.3-0.2,0.4-0.5,0.4-0.8s-0.1-0.6-0.4-0.8C11.6,5.1,11.3,5,11,5L11,5z M10,0   C4.5,0,0,4.5,0,10s4.5,10,10,10s10-4.5,10-10S15.5,0,10,0z M10,19.1c-5,0-9.1-4.1-9.1-9.1S5,0.9,10,0.9S19.1,5,19.1,10   S15,19.1,10,19.1z"/>
    </g>
    <g transform="translate(795)">
        <path class="st1" d="M0,0"/>
        <g>
            <path class="st0" d="M11.3,14.1c-0.3,0-0.5,0-0.6-0.1s-0.2-0.3-0.2-0.5c0-0.1,0-0.2,0.1-0.4c0-0.2,0.1-0.4,0.1-0.5l0.5-1.8    c0.1-0.2,0.1-0.4,0.1-0.6c0-0.2,0-0.3,0-0.4c0-0.4-0.1-0.7-0.4-0.9c-0.3-0.2-0.7-0.4-1.2-0.4c-0.3,0-0.6,0.1-0.9,0.1    C8.5,8.7,8.1,8.8,7.8,9L7.7,9.5c0.1,0,0.2-0.1,0.4-0.1c0.1,0,0.3-0.1,0.4-0.1c0.3,0,0.5,0,0.6,0.1s0.1,0.3,0.1,0.5    c0,0.1,0,0.3,0,0.4c0,0.2-0.1,0.3-0.1,0.5l-0.5,1.9c0,0.2-0.1,0.4-0.1,0.5s0,0.3,0,0.5c0,0.4,0.1,0.7,0.4,0.9S9.5,15,10.1,15    c0.3,0,0.6,0,0.9-0.1s0.6-0.2,1-0.4l0.1-0.6c-0.1,0-0.2,0.1-0.4,0.1C11.6,14.1,11.5,14.1,11.3,14.1L11.3,14.1z M11,5    c-0.4,0-0.7,0.1-0.9,0.3C9.8,5.6,9.7,5.8,9.7,6.2S9.8,6.8,10.1,7s0.6,0.3,0.9,0.3c0.4,0,0.7-0.1,0.9-0.3c0.3-0.2,0.4-0.5,0.4-0.8    s-0.1-0.6-0.4-0.8C11.6,5.1,11.3,5,11,5L11,5z M10,0C4.5,0,0,4.5,0,10s4.5,10,10,10s10-4.5,10-10S15.5,0,10,0z M10,19.1    c-5,0-9.1-4.1-9.1-9.1C0.9,5,5,0.9,10,0.9S19.1,5,19.1,10S15,19.1,10,19.1z"/>
        </g>
        <path class="st0" d="M0,0"/>
    </g>
    <g transform="translate(820)">
        <g>
            <g transform="translate(-471 -443)">
                <path class="st10" d="M479.5,466c0,0,7.5-9.9,7.5-14.2c0-4.3-2.5-7.8-7.5-7.8s-7.5,3.5-7.5,7.8C472,456.1,479.5,466,479.5,466z      M479.5,454.5c2.2,0,4-1.8,4-4s-1.8-4-4-4s-4,1.8-4,4S477.3,454.5,479.5,454.5z"/>
            </g>
        </g>
    </g>
    <g transform="translate(820)">
        <g>
            <g transform="translate(-471 -443)">
                <path class="st11" d="M479.5,496c0,0,7.5-9.9,7.5-14.2c0-4.3-2.5-7.8-7.5-7.8s-7.5,3.5-7.5,7.8C472,486.1,479.5,496,479.5,496z      M479.5,484.5c2.2,0,4-1.8,4-4s-1.8-4-4-4s-4,1.8-4,4S477.3,484.5,479.5,484.5z"/>
            </g>
        </g>
    </g>
    <g transform="translate(845)">
        <path class="st1" d="M18.2,0H1.8C0.8,0,0,0.8,0,1.9v11.3c0,1,0.8,1.9,1.8,1.9h16.4c1,0,1.8-0.8,1.8-1.9V1.9C20,0.8,19.2,0,18.2,0z    M1.8,0.9h16.4c0.1,0,0.2,0,0.3,0.1l-7.9,8.1c-0.2,0.2-0.4,0.3-0.6,0.3S9.6,9.3,9.4,9.1L1.5,1C1.6,1,1.7,0.9,1.8,0.9z M0.9,13.1   V1.9c0-0.1,0-0.1,0-0.2l5.6,5.8l-5.6,5.8C0.9,13.2,0.9,13.2,0.9,13.1L0.9,13.1z M18.2,14.1H1.8c-0.1,0-0.2,0-0.3-0.1l5.7-5.8   l1.6,1.6c0.4,0.4,0.8,0.5,1.3,0.5s0.9-0.2,1.3-0.5L13,8.2l5.7,5.8C18.4,14,18.3,14.1,18.2,14.1L18.2,14.1z M19.1,13.1   c0,0.1,0,0.1,0,0.2l-5.6-5.8l5.6-5.8c0,0.1,0,0.1,0,0.2V13.1L19.1,13.1z"/>
    </g>
    <g transform="translate(870)">
        <path class="st1" d="M0,0"/>
        <path class="st0" d="M18.2,0H1.8C0.8,0,0,0.8,0,1.9v11.3c0,1,0.8,1.9,1.8,1.9h16.4c1,0,1.8-0.8,1.8-1.9V1.9C20,0.8,19.2,0,18.2,0z    M1.8,0.9h16.4c0.1,0,0.2,0,0.3,0.1l-7.9,8.1c-0.2,0.2-0.4,0.3-0.6,0.3S9.6,9.3,9.4,9.1L1.5,1C1.6,1,1.7,0.9,1.8,0.9L1.8,0.9z    M0.9,13.1V1.9c0-0.1,0-0.1,0-0.2l5.6,5.8l-5.6,5.8C0.9,13.2,0.9,13.2,0.9,13.1L0.9,13.1z M18.2,14.1H1.8c-0.1,0-0.2,0-0.3-0.1   l5.7-5.8l1.6,1.6c0.4,0.4,0.8,0.5,1.3,0.5s0.9-0.2,1.3-0.5L13,8.2l5.7,5.8C18.4,14,18.3,14.1,18.2,14.1L18.2,14.1z M19.1,13.1   c0,0.1,0,0.1,0,0.2l-5.6-5.8l5.6-5.8c0,0.1,0,0.1,0,0.2V13.1L19.1,13.1z"/>
    </g>
    <g transform="translate(895)">
        <path class="st1" d="M0,0h26v2H0V0z M0,20h26v2H0V20z M0,10h26v2H0V10z"/>
    </g>
    <g transform="translate(930)">
        <path class="st0" d="M3.8,3.8h9.4v22.5H3.8V3.8z M16.9,3.8h9.4v22.5h-9.4V3.8z"/>
    </g>
    <g transform="translate(965)">
        <path class="st12" d="M0,50.5c0,27.6,22.4,50,50,50s50-22.4,50-50s-22.4-50-50-50S0,22.9,0,50.5z M41.4,36.3l24.7,14.4L41.4,65.1   V36.3z"/>
    </g>
    <g transform="translate(1070)">
        <path class="st0" d="M5.6,3.8L24.4,15L5.6,26.3V3.8z"/>
    </g>
    <g transform="translate(930)">
        <path class="st13" d="M3.8,43.8h9.4v22.5H3.8V43.8z M16.9,43.8h9.4v22.5h-9.4V43.8z"/>
    </g>
    <g transform="translate(1070)">
        <path class="st13" d="M5.6,43.8L24.4,55L5.6,66.3V43.8z"/>
    </g>
    <g transform="translate(1105)">
        <path class="st1" d="M13.8,12l7.9-8C21.9,3.8,22,3.5,22,3.2s-0.2-0.6-0.4-0.9c-0.5-0.4-1.4-0.4-1.8,0.1L12,10.2L4.2,2.4   C3.8,1.9,2.9,1.9,2.4,2.3C2.2,2.5,2,2.8,2,3.2C2,3.5,2.1,3.8,2.3,4l7.9,8l-7.9,7.9C2.1,20.2,2,20.5,2,20.8s0.2,0.6,0.4,0.9   c0.5,0.4,1.3,0.4,1.8-0.1l7.8-7.8l7.8,7.8c0.3,0.2,0.6,0.4,0.9,0.4s0.6-0.1,0.9-0.3c0.3-0.2,0.4-0.5,0.4-0.9c0-0.3-0.1-0.6-0.3-0.9   L13.8,12L13.8,12z"/>
    </g>
    <g transform="translate(1135)">
        <path class="st0" d="M13.8,12l7.9-8C21.9,3.8,22,3.5,22,3.2s-0.2-0.6-0.4-0.9c-0.5-0.4-1.4-0.4-1.8,0.1L12,10.2L4.2,2.4   C3.8,1.9,2.9,1.9,2.4,2.3C2.2,2.5,2,2.8,2,3.2C2,3.5,2.1,3.8,2.3,4l7.9,8l-7.9,7.9C2.1,20.2,2,20.5,2,20.8s0.2,0.6,0.4,0.9   c0.5,0.4,1.3,0.4,1.8-0.1l7.8-7.8l7.8,7.8c0.3,0.2,0.6,0.4,0.9,0.4s0.6-0.1,0.9-0.3c0.3-0.2,0.4-0.5,0.4-0.9c0-0.3-0.1-0.6-0.3-0.9   L13.8,12L13.8,12z"/>
    </g>
    <g transform="translate(1165)">
        <path class="st1" d="M25.7,24l-7.9-7.9c1.4-1.8,2.1-3.9,2.1-6.1c0-5.5-4.5-9.9-9.9-9.9C4.5,0,0,4.5,0,9.9s4.5,9.9,9.9,9.9   c2.2,0,4.4-0.8,6.1-2.1l7.9,7.9c0.2,0.2,0.5,0.3,0.8,0.3s0.6-0.1,0.8-0.3C26.1,25.2,26.1,24.5,25.7,24L25.7,24z M9.9,17.5   c-4.2,0-7.6-3.4-7.6-7.6s3.4-7.6,7.6-7.6s7.6,3.4,7.6,7.6S14.1,17.5,9.9,17.5L9.9,17.5z"/>
    </g>
    <g transform="translate(1200)">
        <path class="st0" d="M25.7,24l-7.9-7.9c1.4-1.8,2.1-3.9,2.1-6.1c0-5.5-4.5-9.9-9.9-9.9C4.5,0,0,4.5,0,9.9s4.5,9.9,9.9,9.9   c2.2,0,4.4-0.8,6.1-2.1l7.9,7.9c0.2,0.2,0.5,0.3,0.8,0.3s0.6-0.1,0.8-0.3C26.1,25.2,26.1,24.5,25.7,24L25.7,24z M9.9,17.5   c-4.2,0-7.6-3.4-7.6-7.6s3.4-7.6,7.6-7.6s7.6,3.4,7.6,7.6S14.1,17.5,9.9,17.5L9.9,17.5z"/>
    </g>
    <path class="st1" d="M1189.7,64.3c0.2,0,0.5-0.1,0.6-0.2c0.2-0.2,0.4-0.3,0.4-0.5s0-0.4-0.2-0.6l-8.1-8.1l0.2-0.2  c1.3-1.7,2-3.7,2-5.9c0-5.3-4.3-9.6-9.6-9.6c-0.1,0-0.1,0-0.2,0c-2.5,0-4.8,0.9-6.6,2.7c-1.8,1.8-2.9,4.2-2.9,6.7  c0,5.2,4.4,9.6,9.6,9.6c2.1,0,4.2-0.7,5.9-2l0.2-0.2l0,0l8.1,8.1C1189.2,64.2,1189.5,64.3,1189.7,64.3z M1174.9,56.6  c-4.4,0-7.9-3.6-7.9-7.9s3.6-7.9,7.9-7.9s7.9,3.6,7.9,7.9S1179.3,56.6,1174.9,56.6z"/>
    <path class="st0" d="M1224.7,64.3c0.2,0,0.5-0.1,0.6-0.2c0.2-0.2,0.4-0.3,0.4-0.5s0-0.4-0.2-0.6l-8.1-8.1l0.2-0.2  c1.3-1.7,2-3.7,2-5.9c0-5.3-4.3-9.6-9.6-9.6c-0.1,0-0.1,0-0.2,0c-2.5,0-4.8,0.9-6.6,2.7c-1.8,1.8-2.9,4.2-2.9,6.7  c0,5.2,4.4,9.6,9.6,9.6c2.1,0,4.2-0.7,5.9-2l0.2-0.2l0,0l8.1,8.1C1224.2,64.2,1224.5,64.3,1224.7,64.3z M1209.9,56.6  c-4.4,0-7.9-3.6-7.9-7.9s3.6-7.9,7.9-7.9s7.9,3.6,7.9,7.9S1214.3,56.6,1209.9,56.6z"/>
    <g transform="translate(1235)">
        <path class="st0" d="M3.2,26V13.8H0V9.4h3.2V5.7c0-3,1.9-5.7,6.3-5.7c1.8,0,3.1,0.2,3.1,0.2l-0.1,4.1c0,0-1.3,0-2.8,0   C8.1,4.3,7.9,5,7.9,6.2v3.2h4.8l-0.2,4.4H7.9V26H3.2z"/>
    </g>
    <g transform="translate(1255)">
        <g>
            <g>
                <path class="st0" d="M11.7,1.1c0.2,0.1,0.4,0.3,0.7,0.6c0.3,0.2,0.5,0.5,0.7,0.9c0.2,0.3,0.4,0.8,0.6,1.2c0.2,0.4,0.3,1,0.3,1.6     s-0.1,1.1-0.2,1.5s-0.3,0.8-0.6,1.2c-0.3,0.3-0.5,0.7-0.9,0.9c-0.3,0.3-0.6,0.6-1,0.8c-0.2,0.2-0.4,0.4-0.6,0.7     c-0.2,0.2-0.3,0.5-0.3,0.9s0.1,0.6,0.3,0.8s0.4,0.4,0.5,0.5l1.1,0.9c0.3,0.3,0.7,0.6,1,0.9c0.3,0.3,0.6,0.6,0.9,0.9     c0.2,0.3,0.4,0.7,0.6,1.1c0.1,0.4,0.2,0.9,0.2,1.5c0,0.7-0.2,1.5-0.5,2.2c-0.4,0.7-0.9,1.4-1.6,1.9c-0.7,0.6-1.6,1-2.6,1.4     c-1,0.3-2.2,0.5-3.6,0.5c-1.1,0-2.1-0.1-3-0.4s-1.6-0.6-2.1-1c-0.6-0.4-1-0.9-1.3-1.4C0.1,20.6,0,20.1,0,19.5s0.2-1.2,0.5-1.9     c0.3-0.7,1-1.4,1.9-1.9c0.5-0.3,1-0.5,1.6-0.7s1.1-0.3,1.7-0.4s1.1-0.2,1.5-0.2c0.5,0,0.9-0.1,1.3-0.1c-0.2-0.3-0.4-0.6-0.6-0.9     c-0.2-0.3-0.3-0.7-0.3-1.2c0-0.3,0-0.5,0.1-0.7s0.1-0.4,0.2-0.6c-0.2,0-0.3,0-0.5,0s-0.3,0-0.5,0c-0.8,0-1.6-0.1-2.2-0.4     C4,10.2,3.5,9.8,3.1,9.4c-0.4-0.5-0.8-1-1-1.6C1.7,7.2,1.6,6.6,1.6,6c0-0.7,0.2-1.5,0.5-2.2s0.8-1.4,1.5-2C4.5,1,5.4,0.5,6.4,0.3     S8.4,0,9.2,0h6.5l-2,1.1H11.7L11.7,1.1z M12.9,19.3c0-0.4-0.1-0.8-0.2-1.1c-0.1-0.3-0.3-0.6-0.6-1s-0.6-0.6-1.1-1     c-0.4-0.3-1-0.7-1.5-1.1c-0.1,0-0.2,0-0.3,0H8.8c-0.1,0-0.2,0-0.4,0s-0.5,0-0.8,0.1c-0.3,0-0.7,0.1-1,0.2c-0.4,0.1-0.7,0.2-1,0.3     c-0.2,0.1-0.4,0.2-0.7,0.3c-0.3,0.1-0.6,0.3-0.9,0.6s-0.5,0.6-0.8,0.9s-0.3,0.9-0.3,1.4c0,1.1,0.5,2.1,1.5,2.8     c1,0.7,2.3,1.1,4,1.1c1.5,0,2.7-0.3,3.4-1C12.6,21.1,12.9,20.3,12.9,19.3L12.9,19.3z M8.3,10c0.4,0,0.8-0.1,1.2-0.3     s0.7-0.4,1-0.6c0.4-0.4,0.6-0.8,0.7-1.2c0.1-0.4,0.1-0.8,0.1-1.1c0-0.6-0.1-1.2-0.3-1.9S10.6,3.6,10.2,3C9.9,2.5,9.5,2,9,1.6     S7.9,1,7.2,1C6.8,1,6.4,1.1,6,1.3S5.3,1.7,5,2.1C4.8,2.4,4.6,2.8,4.5,3.2S4.3,4,4.3,4.4c0,0.5,0.1,1.1,0.2,1.8S5,7.4,5.3,8     C5.6,8.6,6,9,6.5,9.4S7.6,10,8.3,10L8.3,10z"/>
            </g>
            <g>
                <path class="st0" d="M19.1,14.4v-2.6h-2.6V10h2.6V7.4h1.8V10h2.6v1.8h-2.6v2.6H19.1L19.1,14.4z"/>
            </g>
        </g>
    </g>
    <g transform="translate(1285)">
        <path class="st0" d="M25.8,2.5c-1,0.4-2,0.7-3,0.8c1.1-0.7,1.9-1.7,2.3-2.9c-1,0.6-2.2,1-3.4,1.3c-1-1-2.3-1.7-3.9-1.7   c-2.9,0-5.3,2.4-5.3,5.3c0,0.4,0,0.8,0.1,1.2C8.3,6.3,4.4,4.2,1.8,1C1.3,1.8,1.1,2.7,1.1,3.6C1.1,5.5,2,7.1,3.4,8   C2.6,8,1.8,7.8,1,7.4v0.1c0,2.6,1.8,4.7,4.3,5.2c-0.4,0.1-0.9,0.2-1.4,0.2c-0.3,0-0.7,0-1-0.1c0.7,2.1,2.6,3.6,5,3.7   c-1.8,1.4-4.1,2.3-6.6,2.3c-0.4,0-0.9,0-1.3-0.1C2.3,20.1,5.1,21,8.1,21c9.8,0,15.1-8.1,15.1-15.1c0-0.2,0-0.5,0-0.7   C24.2,4.5,25.1,3.6,25.8,2.5L25.8,2.5z"/>
    </g>
    <g transform="translate(1320)">
        <g>
            <path class="st1" d="M8.7,6.8c0,2.8-1.4,4.5-4.4,4.5C1.4,11.3,0,9.6,0,6.8V0.2h1.5v6.9C1.5,9,2.7,10,4.4,10s2.8-1,2.9-2.9V0.2h1.5    L8.7,6.8L8.7,6.8z M19.3,7.9c0.1,2.4-1.6,3.4-3.9,3.4c-2.2,0-4.4-0.9-4.4-3.3c0-2.7,2.7-2.7,4.7-3.4c0.9-0.3,1.8-0.4,1.8-1.6    c0-1.3-1.5-1.7-2.5-1.7c-1.1,0-2.1,0.4-2.2,1.6h-1.6C11.3,0.8,13.1,0,15,0c2,0,4.2,0.9,4.2,3.2c0,2.4-3,2.8-4.8,3.2    c-0.9,0.2-1.8,0.6-1.8,1.7c0,1.5,1.5,1.9,2.7,1.9c1.5,0,2.3-0.6,2.4-2.1H19.3L19.3,7.9z M30.4,6.8c0,2.8-1.4,4.5-4.4,4.5    c-2.9,0-4.4-1.7-4.4-4.5V0.2h1.5v6.9C23.1,9,24.3,10,26,10s2.8-1,2.9-2.9V0.2h1.5V6.8L30.4,6.8z M34.3,7.9c0,1.5,0.9,2.1,2.4,2.1    c1.2,0,2.7-0.4,2.7-1.9c0-1.1-0.9-1.5-1.8-1.7c-1.8-0.4-4.8-0.8-4.8-3.2C32.9,0.9,35,0,37.1,0c1.8,0,3.7,0.8,3.7,2.9h-1.6    c-0.1-1.2-1.1-1.6-2.2-1.6c-1.1,0-2.5,0.4-2.5,1.7c0,1.2,0.9,1.3,1.8,1.6C38.3,5.2,41,5.2,41,8c0,2.5-2.2,3.3-4.4,3.3    c-2.3,0-3.9-1-3.9-3.4H34.3L34.3,7.9z"/>
        </g>
    </g>
    <g transform="translate(1370)">
        <g>
            <path class="st0" d="M8.7,6.8c0,2.8-1.4,4.5-4.4,4.5C1.4,11.3,0,9.6,0,6.8V0.2h1.5v6.9C1.5,9,2.7,10,4.4,10s2.8-1,2.9-2.9V0.2h1.5    L8.7,6.8L8.7,6.8z M19.3,7.9c0.1,2.4-1.6,3.4-3.9,3.4c-2.2,0-4.4-0.9-4.4-3.3c0-2.7,2.7-2.7,4.7-3.4c0.9-0.3,1.8-0.4,1.8-1.6    c0-1.3-1.5-1.7-2.5-1.7c-1.1,0-2.1,0.4-2.2,1.6h-1.6C11.3,0.8,13.1,0,15,0c2,0,4.2,0.9,4.2,3.2c0,2.4-3,2.8-4.8,3.2    c-0.9,0.2-1.8,0.6-1.8,1.7c0,1.5,1.5,1.9,2.7,1.9c1.5,0,2.3-0.6,2.4-2.1H19.3L19.3,7.9z M30.4,6.8c0,2.8-1.4,4.5-4.4,4.5    s-4.4-1.7-4.4-4.5V0.2h1.5v6.9C23.1,9,24.3,10,26,10s2.8-1,2.9-2.9V0.2h1.5V6.8z M34.3,7.9c0,1.5,0.9,2.1,2.4,2.1    c1.2,0,2.7-0.4,2.7-1.9c0-1.1-0.9-1.5-1.8-1.7c-1.8-0.4-4.8-0.8-4.8-3.2C32.9,0.9,35,0,37.1,0c1.8,0,3.7,0.8,3.7,2.9h-1.6    c-0.1-1.2-1.1-1.6-2.2-1.6c-1.1,0-2.5,0.4-2.5,1.7c0,1.2,0.9,1.3,1.8,1.6C38.3,5.2,41,5.2,41,8c0,2.5-2.2,3.3-4.4,3.3    c-2.3,0-3.9-1-3.9-3.4H34.3L34.3,7.9z"/>
        </g>
    </g>
    <g transform="translate(1420)">
        <g>
            <path class="st0" d="M8.9,0H7.4l-1,3.8L5.4,0H3.9c0.3,0.9,0.6,1.8,0.9,2.7c0.5,1.4,0.8,2.4,0.9,3.1v3.9h1.5V5.8L8.9,0z M12.8,7.4    V4.8c0-0.8-0.1-1.3-0.4-1.7c-0.4-0.5-0.9-0.7-1.5-0.7c-0.7,0-1.2,0.2-1.5,0.7C9,3.5,8.9,4.1,8.9,4.8v2.5C8.9,8.1,9,8.6,9.3,9    c0.4,0.5,0.9,0.7,1.5,0.7c0.7,0,1.2-0.2,1.5-0.7C12.7,8.7,12.8,8.1,12.8,7.4L12.8,7.4z M11.5,7.6c0,0.7-0.2,1-0.6,1    c-0.4,0-0.6-0.3-0.6-1v-3c0-0.7,0.2-1,0.6-1c0.4,0,0.6,0.3,0.6,1V7.6L11.5,7.6z M17.6,9.7V2.5h-1.3V8c-0.3,0.4-0.6,0.6-0.8,0.6    s-0.3-0.1-0.3-0.3c0,0,0-0.2,0-0.5V2.5h-1.3v5.7c0,0.5,0,0.9,0.1,1.1c0.1,0.4,0.4,0.5,0.8,0.5c0.5,0,1-0.3,1.5-0.9v0.8L17.6,9.7    L17.6,9.7z"/>
            <g>
                <path class="st0" d="M17.9,17.1c-0.4,0-0.7,0.3-0.7,1v0.7h1.3v-0.7C18.6,17.4,18.4,17.1,17.9,17.1L17.9,17.1z M13.1,17.1     c-0.2,0-0.4,0.1-0.6,0.3v4.4c0.2,0.2,0.4,0.3,0.6,0.3c0.4,0,0.6-0.3,0.6-1V18C13.7,17.4,13.5,17.1,13.1,17.1z M21.1,13.4     c-0.3-1.1-1.2-2-2.3-2.1C16.1,11,13.4,11,10.7,11s-5.4,0-8,0.3c-1.1,0.1-2.1,1-2.3,2.1C0,15.1,0,16.8,0,18.5s0,3.5,0.4,5.1     c0.3,1.1,1.2,2,2.3,2.1c2.7,0.3,5.4,0.3,8,0.3c2.7,0,5.4,0,8.1-0.3c1.1-0.1,2.1-1,2.3-2.1c0.4-1.6,0.4-3.4,0.4-5.1     C21.5,16.8,21.5,15.1,21.1,13.4L21.1,13.4z M6.1,14.9H4.6v8.3H3.1v-8.3H1.6v-1.4h4.5V14.9L6.1,14.9z M10.1,23.2H8.8v-0.8     c-0.5,0.6-1,0.9-1.5,0.9c-0.4,0-0.7-0.2-0.8-0.5c-0.1-0.2-0.1-0.6-0.1-1.1V16h1.3v5.3c0,0.3,0,0.5,0,0.5c0,0.2,0.1,0.3,0.3,0.3     c0.3,0,0.5-0.2,0.8-0.6V16h1.3V23.2L10.1,23.2z M15,21c0,0.7,0,1.1-0.1,1.4c-0.2,0.5-0.5,0.8-1,0.8s-0.9-0.3-1.3-0.8v0.7h-1.3     v-9.6h1.3v3.1c0.4-0.5,0.9-0.8,1.3-0.8c0.5,0,0.9,0.3,1,0.8C15,16.9,15,17.4,15,18V21L15,21z M19.9,19.8h-2.6v1.3     c0,0.7,0.2,1,0.7,1c0.3,0,0.5-0.2,0.6-0.5c0-0.1,0-0.4,0-0.9h1.3v0.2c0,0.4,0,0.7,0,0.8c0,0.3-0.1,0.5-0.3,0.8     c-0.4,0.5-0.9,0.8-1.6,0.8s-1.2-0.2-1.6-0.7c-0.3-0.4-0.4-0.9-0.4-1.7v-2.5c0-0.8,0.1-1.3,0.4-1.7c0.4-0.5,0.9-0.7,1.6-0.7     s1.2,0.2,1.5,0.7c0.3,0.4,0.4,0.9,0.4,1.7V19.8L19.9,19.8z"/>
            </g>
        </g>
    </g>
    <g>
        <path class="st0" d="M1298.2,38.8c3.4,0,3.8,0,5.1,0.1c1.2,0.1,1.9,0.3,2.3,0.4c0.6,0.2,1,0.5,1.5,0.9c0.4,0.4,0.7,0.9,0.9,1.5   c0.2,0.4,0.4,1.1,0.4,2.3c0.1,1.3,0.1,1.7,0.1,5.1s0,3.8-0.1,5.1c-0.1,1.2-0.3,1.9-0.4,2.3c-0.2,0.6-0.5,1-0.9,1.5   c-0.4,0.4-0.9,0.7-1.5,0.9c-0.4,0.2-1.1,0.4-2.3,0.4c-1.3,0.1-1.7,0.1-5.1,0.1s-3.8,0-5.1-0.1c-1.2-0.1-1.9-0.3-2.3-0.4   c-0.6-0.2-1-0.5-1.5-0.9c-0.4-0.4-0.7-0.9-0.9-1.5c-0.2-0.4-0.4-1.1-0.4-2.3c-0.1-1.3-0.1-1.7-0.1-5.1s0-3.8,0.1-5.1   c0.1-1.2,0.3-1.9,0.4-2.3c0.2-0.6,0.5-1,0.9-1.5c0.4-0.4,0.9-0.7,1.5-0.9c0.4-0.2,1.1-0.4,2.3-0.4   C1294.5,38.9,1294.9,38.8,1298.2,38.8 M1298.2,36.6c-3.4,0-3.9,0-5.2,0.1c-1.3,0.1-2.3,0.3-3.1,0.6c-0.8,0.3-1.5,0.8-2.2,1.5   s-1.1,1.4-1.5,2.2c-0.3,0.8-0.5,1.7-0.6,3.1c-0.1,1.3-0.1,1.8-0.1,5.2s0,3.9,0.1,5.2s0.3,2.3,0.6,3.1c0.3,0.8,0.8,1.5,1.5,2.2   s1.4,1.1,2.2,1.5c0.8,0.3,1.7,0.5,3.1,0.6c1.3,0.1,1.8,0.1,5.2,0.1c3.4,0,3.9,0,5.2-0.1c1.3-0.1,2.3-0.3,3.1-0.6   c0.8-0.3,1.5-0.8,2.2-1.5s1.1-1.4,1.5-2.2c0.3-0.8,0.5-1.7,0.6-3.1c0.1-1.3,0.1-1.8,0.1-5.2s0-3.9-0.1-5.2s-0.3-2.3-0.6-3.1   c-0.3-0.8-0.8-1.5-1.5-2.2s-1.4-1.1-2.2-1.5c-0.8-0.3-1.7-0.5-3.1-0.6C1302.1,36.6,1301.7,36.6,1298.2,36.6L1298.2,36.6z"/>
        <path class="st0" d="M1298.2,42.7c-3.6,0-6.5,2.9-6.5,6.5s2.9,6.5,6.5,6.5s6.5-2.9,6.5-6.5C1304.7,45.6,1301.8,42.7,1298.2,42.7z    M1298.2,53.4c-2.3,0-4.2-1.9-4.2-4.2s1.9-4.2,4.2-4.2c2.3,0,4.2,1.9,4.2,4.2C1302.4,51.5,1300.5,53.4,1298.2,53.4z"/>
        <circle class="st0" cx="1305" cy="42.5" r="1.5"/>
    </g>
    <g id="Contact_Card_2_x40_2x.png_2_">
        <g>
            <path class="st1" d="M855.5,37.7h3.6c0.3,0,0.5-0.2,0.5-0.5s-0.2-0.5-0.5-0.5h-3.6c-0.3,0-0.5,0.2-0.5,0.5S855.2,37.7,855.5,37.7z     M855.5,35.9h5.5c0.3,0,0.5-0.2,0.5-0.5s-0.2-0.5-0.5-0.5h-5.5c-0.3,0-0.5,0.2-0.5,0.5S855.2,35.9,855.5,35.9z M855.5,34.1h3.6    c0.3,0,0.5-0.2,0.5-0.5s-0.2-0.5-0.5-0.5h-3.6c-0.3,0-0.5,0.2-0.5,0.5C855,33.9,855.2,34.1,855.5,34.1z M855.5,39.5h5.5    c0.3,0,0.5-0.2,0.5-0.5s-0.2-0.5-0.5-0.5h-5.5c-0.3,0-0.5,0.2-0.5,0.5S855.2,39.5,855.5,39.5z M864.1,30h-18.2    c-0.5,0-0.9,0.4-0.9,0.9v12.7c0,0.5,0.4,0.9,0.9,0.9h18.2c0.5,0,0.9-0.4,0.9-0.9V30.9C865,30.4,864.6,30,864.1,30z M864.1,43.6    h-18.2V30.9h18.2V43.6z M855.5,41.4h5.5c0.3,0,0.5-0.2,0.5-0.5s-0.2-0.5-0.5-0.5h-5.5c-0.3,0-0.5,0.2-0.5,0.5    S855.2,41.4,855.5,41.4z M848.6,38.6h3.6c0.3,0,0.5-0.2,0.5-0.5v-4.5c0-0.3-0.2-0.5-0.5-0.5h-3.6c-0.3,0-0.5,0.2-0.5,0.5v4.5    C848.2,38.4,848.4,38.6,848.6,38.6z M849.1,34.1h2.7v3.6h-2.7V34.1z"/>
        </g>
    </g>
    <g id="Contact_Card_2_x40_2x.png_3_">
        <g>
            <path class="st0" d="M880.5,34.1h3.6c0.3,0,0.5-0.2,0.5-0.5s-0.2-0.5-0.5-0.5h-3.6c-0.3,0-0.5,0.2-0.5,0.5    C880,33.9,880.2,34.1,880.5,34.1z M880.5,37.7h3.6c0.3,0,0.5-0.2,0.5-0.5s-0.2-0.5-0.5-0.5h-3.6c-0.3,0-0.5,0.2-0.5,0.5    S880.2,37.7,880.5,37.7z M880.5,39.5h5.5c0.3,0,0.5-0.2,0.5-0.5s-0.2-0.5-0.5-0.5h-5.5c-0.3,0-0.5,0.2-0.5,0.5    S880.2,39.5,880.5,39.5z M880.5,35.9h5.5c0.3,0,0.5-0.2,0.5-0.5s-0.2-0.5-0.5-0.5h-5.5c-0.3,0-0.5,0.2-0.5,0.5    S880.2,35.9,880.5,35.9z M880.5,41.4h5.5c0.3,0,0.5-0.2,0.5-0.5s-0.2-0.5-0.5-0.5h-5.5c-0.3,0-0.5,0.2-0.5,0.5    S880.2,41.4,880.5,41.4z M889.1,30h-18.2c-0.5,0-0.9,0.4-0.9,0.9v12.7c0,0.5,0.4,0.9,0.9,0.9h18.2c0.5,0,0.9-0.4,0.9-0.9V30.9    C890,30.4,889.6,30,889.1,30z M889.1,43.6h-18.2V30.9h18.2V43.6z M873.6,38.6h3.6c0.3,0,0.5-0.2,0.5-0.5v-4.5    c0-0.3-0.2-0.5-0.5-0.5h-3.6c-0.3,0-0.5,0.2-0.5,0.5v4.5C873.2,38.4,873.4,38.6,873.6,38.6z M874.1,34.1h2.7v3.6h-2.7V34.1z"/>
        </g>
    </g>
    <path class="st0" d="M1349,38.3h-18.8c-0.9,0-1.6,0.7-1.6,1.6v18.8c0,0.9,0.7,1.6,1.6,1.6h18.8c0.9,0,1.6-0.7,1.6-1.6V39.9  C1350.7,39,1349.9,38.3,1349,38.3z M1335.2,57h-3.3V46.5h3.3V57z M1333.6,45.1c-1.1,0-1.9-0.8-1.9-1.9s0.9-1.9,1.9-1.9  c1.1,0,1.9,0.8,1.9,1.9S1334.6,45.1,1333.6,45.1z M1347.4,57.1h-3.3v-5.7c0-1.7-0.7-2.2-1.6-2.2c-1,0-1.9,0.7-1.9,2.3v5.7h-3.3V46.5  h3.2V48l0,0c0.3-0.6,1.4-1.8,3.1-1.8c1.8,0,3.8,1.1,3.8,4.3L1347.4,57.1L1347.4,57.1z"/>
    <polygon class="st14" points="1006.4,36.3 1031.1,50.7 1006.4,65.1 "/>
    <g transform="translate(1165)">
        <path class="st1" d="M-1058.2,100.9l-7.9-7.9c1.4-1.8,2.1-3.9,2.1-6.1c0-5.5-4.5-9.9-9.9-9.9c-5.5-0.1-10,4.4-10,9.8   s4.5,9.9,9.9,9.9c2.2,0,4.4-0.8,6.1-2.1l7.9,7.9c0.2,0.2,0.5,0.3,0.8,0.3s0.6-0.1,0.8-0.3C-1057.8,102.1-1057.8,101.4-1058.2,100.9   L-1058.2,100.9z M-1074,94.4c-4.2,0-7.6-3.4-7.6-7.6s3.4-7.6,7.6-7.6s7.6,3.4,7.6,7.6S-1069.8,94.4-1074,94.4L-1074,94.4z"/>
    </g>
    <g transform="translate(895)">
        <path class="st1" d="M-769.9,78.9h26v2h-26V78.9z M-769.9,98.9h26v2h-26V98.9z M-769.9,88.9h26v2h-26V88.9z"/>
    </g>
    <g>
        <path class="st15" d="M176.9,83.7c1.8,0,3.3-1.5,3.3-3.3s-1.5-3.3-3.3-3.3s-3.3,1.5-3.3,3.3C173.6,82.3,175,83.7,176.9,83.7z    M176.9,78.3c1.2,0,2.1,0.9,2.1,2.1s-0.9,2.1-2.1,2.1c-1.2,0-2.1-0.9-2.1-2.1S175.7,78.3,176.9,78.3z"/>
        <path class="st15" d="M184.5,83.9c-0.1,0-0.1,0-0.3,0l-5.8,0.8h-3.3l-5.8-0.8c-0.1,0-0.1,0-0.3,0c-1.1,0-2,0.9-2.1,2   c-0.1,1.3,0.7,2.5,1.8,2.6l5,0.7v2.6l-3.2,7.7c-0.3,0.5-0.3,1.2,0,1.8c0.3,0.7,0.7,1.1,1.3,1.3c0.3,0.1,0.5,0.1,0.9,0.1   c0.9,0,1.8-0.5,2.1-1.5l1.8-4.6l1.8,4.6c0.4,0.9,1.2,1.5,2.1,1.5c0.3,0,0.7,0,0.9-0.1c1.2-0.5,1.7-1.8,1.3-3l-3.2-7.7v-2.5l5-0.7   c0.7-0.1,1.2-0.4,1.5-0.9s0.4-1.1,0.3-1.6C186.7,84.9,185.6,83.9,184.5,83.9z M184.8,87.5l-6.1,0.8v3.8l3.3,7.9   c0.3,0.5,0,1.3-0.7,1.5c-0.1,0-0.3,0.1-0.4,0.1c-0.4,0-0.9-0.3-1.1-0.7l-3-7.3l-3,7.3c-0.1,0.4-0.7,0.7-1.1,0.7   c-0.1,0-0.3,0-0.4-0.1c-0.5-0.3-0.9-0.9-0.7-1.5l3.3-7.9v-3.8l-6.1-0.8c-0.5-0.1-0.9-0.7-0.8-1.3c0.1-0.5,0.5-1.1,0.9-1.1h0.1   l5.8,0.8h3.4l5.8-0.8h0.1c0.5,0,0.9,0.4,0.9,1.1C185.6,86.8,185.3,87.4,184.8,87.5z"/>
    </g>
    <g>
        <path class="st16" d="M211.5,93.3c0.7,3.5,3.8,6.1,7.5,6.1c0.7,0,1.3-0.1,2-0.3h0.1c0.1,0,0.2,0,0.3,0.1l2.8,2.1v-3.7   c0-0.1,0.1-0.3,0.2-0.4c1.5-1.4,2.3-3.4,2.3-5.5c0-4.2-3.4-7.6-7.6-7.6c-1,0-2,0.2-2.8,0.6c0,0.3,0.1,0.6,0.1,1   C216.2,89,214.3,91.9,211.5,93.3z"/>
        <path class="st15" d="M218.9,83.1c-1.1,0-2.1,0.2-3,0.6c-0.9-3.8-4.3-6.7-8.4-6.7c-4.7,0-8.6,3.9-8.6,8.6c0,2.3,0.9,4.4,2.5,6v4.5   c0,0.2,0.1,0.4,0.3,0.4c0.1,0,0.1,0.1,0.2,0.1c0.1,0,0.2,0,0.3-0.1l3.4-2.6c0.6,0.2,1.3,0.2,2,0.2c1.1,0,2.1-0.2,3-0.6   c0.9,3.8,4.3,6.7,8.4,6.7c0.7,0,1.3-0.1,2-0.2l3.4,2.6c0.1,0.1,0.2,0.1,0.3,0.1s0.2,0,0.2-0.1c0.2-0.1,0.3-0.3,0.3-0.4v-4.5   c1.6-1.6,2.5-3.8,2.5-6C227.5,87,223.7,83.1,218.9,83.1z M210.4,92.7c-0.9,0.4-1.8,0.6-2.8,0.6c-0.7,0-1.3-0.1-2-0.3   c-0.1,0-0.3,0-0.4,0.1l-2.8,2.1v-3.7c0-0.1-0.1-0.3-0.2-0.4c-1.5-1.4-2.3-3.4-2.3-5.5c0-4.2,3.4-7.6,7.6-7.6c3.7,0,6.7,2.6,7.5,6.1   c0.1,0.3,0.1,0.7,0.1,1.1c0,0.2,0,0.3,0,0.5c0,2.8-1.5,5.3-3.8,6.6C211,92.4,210.7,92.6,210.4,92.7z M224.2,97.2   c-0.1,0.1-0.2,0.2-0.2,0.4v3.7l-2.8-2.1c-0.1-0.1-0.2-0.1-0.3-0.1h-0.1c-0.6,0.2-1.3,0.3-2,0.3c-3.7,0-6.7-2.6-7.5-6.1   c2.8-1.4,4.7-4.3,4.7-7.7c0-0.3,0-0.6-0.1-1c0.9-0.4,1.8-0.6,2.8-0.6c4.2,0,7.6,3.4,7.6,7.6C226.6,93.8,225.7,95.8,224.2,97.2z"/>
        <path class="st17" d="M208.4,81.4c-0.2-0.3-0.4-0.5-0.7-0.5c-0.1,0-0.2,0-0.3,0.1l0,0l0,0c-0.2,0-0.3,0.2-0.3,0.3l0,0l0,0l-2.9,7.5   c-0.1,0.2-0.1,0.4,0,0.6s0.2,0.3,0.4,0.4c0.1,0.1,0.2,0.1,0.3,0.1c0.3,0,0.5-0.2,0.7-0.5l0.5-1.2v-0.1h0.1h2.9h0.1v0.1l0.5,1.2   c0.2,0.3,0.4,0.5,0.7,0.5c0.1,0,0.2,0,0.3-0.1c0.2-0.1,0.4-0.3,0.4-0.4c0.1-0.2,0.1-0.4,0-0.6L208.4,81.4z M208.3,86.5h-1.5h-0.2   l0.1-0.2l0.7-1.9l0.1-0.3l0.1,0.3l0.7,1.9l0.1,0.2H208.3z"/>
        <path class="st17" d="M223.1,89.1c0-0.4-0.4-0.5-0.7-0.5h-2.6h-0.1v-0.1v-0.9c0-0.4-0.4-0.7-0.7-0.7s-0.7,0.4-0.7,0.7v0.9v0.1h-0.1   h-2.6c-0.4,0-0.7,0.4-0.7,0.7c0,0.4,0.4,0.7,0.7,0.7h4.9h0.2v0.1c-0.2,1-0.8,2.1-1.5,2.9l-0.1,0.1L219,93c-0.1-0.1-0.2-0.3-0.3-0.4   c-0.1-0.2-0.2-0.3-0.3-0.4l0,0l0,0c-0.1-0.2-0.3-0.3-0.5-0.3c-0.1,0-0.3,0-0.3,0.1l0,0l0,0c-0.2,0.1-0.3,0.2-0.3,0.4   c0,0.2,0,0.3,0.1,0.5c0.2,0.4,0.4,0.6,0.8,1l0.1,0.1l-0.1,0.1c-0.5,0.5-1.2,0.9-1.8,1.1c-0.4,0.2-0.3,0.6-0.1,0.9   c0.2,0.4,0.5,0.4,0.9,0.4c0.9-0.4,1.5-0.9,2.1-1.5l0.1-0.1l0.1,0.1c0.6,0.6,1.2,1,2.1,1.5c0.1,0,0.2,0.1,0.3,0.1   c0.3,0,0.5-0.2,0.6-0.4c0.2-0.4,0-0.7-0.4-0.9c-0.5-0.2-0.8-0.4-1.2-0.7c-0.2-0.1-0.3-0.2-0.5-0.4l-0.1-0.1l0.1-0.1   c0.9-0.9,1.6-2.2,2.1-4v-0.1h0.1C222.8,89.8,223.1,89.4,223.1,89.1z"/>
    </g>
    <g id="Ebene_2_00000022537763407605268090000017138405482096053682_">
        <path class="st18" d="M296.7,89.8c-0.2,0-0.4-0.1-0.4-0.3c-0.1-0.2,0.1-0.5,0.3-0.6l1.2-0.4c0.2-0.1,0.5-0.2,0.6-0.3   c0,0,0.2-0.2,0.1-0.6c0-0.1-0.3-0.2-0.5-0.2l-3.2,0.3c-0.2,0-0.4-0.1-0.5-0.3s0-0.4,0.2-0.5l2.1-1.1c0.8-0.4,1.8-1.1,1.9-1.3   c0.2-0.3,0.2-0.6-0.1-1c-0.1-0.2-0.5-0.1-0.7,0l-4.5,2.4c-0.2,0.1-0.5,0-0.6-0.1c-0.1-0.2-0.1-0.4,0.1-0.6l3.6-3.4   c0.3-0.3,0.6-0.7,0.7-0.8c0.2-0.6-0.2-0.9-0.3-0.9c-0.4-0.3-0.9,0.1-1,0.1l-4,3.7c-0.2,0.2-0.4,0.2-0.6,0c-0.2-0.1-0.2-0.4-0.1-0.6   c0.1-0.1,1.4-2.5,1.6-2.9c0.7-1.2,0.8-1.6,0.8-1.7s-0.1-0.4-0.2-0.6c-0.1-0.1-0.4-0.2-0.7-0.2c-0.2,0-0.5,0.3-0.6,0.5l-0.7,1.3l0,0   c-0.5,0.8-1.5,2.5-1.7,2.8c-0.3,0.5-1,1.1-1.1,1.2l0,0l-1,0.7c-0.2,0.1-0.4,0.1-0.5,0c-0.2-0.1-0.2-0.3-0.2-0.5   c0.1-0.6,0.2-1.4,0.2-1.6c0-0.3-0.1-1.1-0.2-1.5c-0.1-0.3-0.5-1-0.6-1.1s-0.5-0.3-0.6-0.3s-0.1,0-0.3,0.1c0,0.1,0,0.4,0,0.5   s0,0.1,0,0.2s0,0.2,0.1,0.4c0,0.3,0.1,0.7,0.1,1c0,0.7-0.7,2.5-1.1,3.3c-0.3,0.6-0.2,1.2-0.1,2c0,0.3-0.1,0.5-0.4,0.5   s-0.5-0.1-0.5-0.4s-0.3-1.5,0.2-2.5s1-2.5,1-2.9c0-0.3,0-0.6-0.1-0.9c0-0.2-0.1-0.4-0.1-0.6c0,0,0-0.1,0-0.2c0-0.4,0-1.1,0.5-1.3   l0,0c0.3-0.2,0.5-0.3,0.9-0.3s1,0.4,1.2,0.6c0.1,0.2,0.7,1,0.8,1.5c0.1,0.4,0.2,1.3,0.2,1.6c0,0.1,0,0.4-0.1,0.7l0.1-0.1   c0.3-0.2,0.7-0.7,0.9-0.9c0.2-0.4,1.6-2.6,1.7-2.8l0.7-1.3l0,0c0.1-0.1,0.5-0.8,1.2-0.9s1.4,0.2,1.6,0.6c0.1,0.1,0.5,0.8,0.3,1.4   c0,0.1-0.1,0.4-0.9,1.9c0,0.1-0.2,0.3-0.3,0.5l2-1.9l0,0c0,0,0.3-0.2,0.7-0.4c0.5-0.2,1.1-0.1,1.5,0.2c0.7,0.5,0.9,1.2,0.6,2   c0,0.1-0.1,0.3-0.9,1.1l0,0l-1.2,1.2l1.7-0.9c0,0,0,0,0.1,0s1.1-0.4,1.7,0.3c0.5,0.6,0.5,1.4,0.1,2c-0.3,0.5-1.7,1.3-2.2,1.6h-0.1   l1-0.1h0.1c1,0.1,1.3,0.7,1.3,1.1c0,0.6-0.1,1.2-0.5,1.4c-0.2,0.2-0.7,0.4-0.8,0.4l0,0l-1.2,0.4C296.8,89.8,296.8,89.8,296.7,89.8z    M297,80.8L297,80.8L297,80.8z"/>
        <path class="st18" d="M297,94.3c-0.1-0.5-0.4-0.9-1-1.2c-0.4-0.2-0.7-0.2-0.7-0.2l0,0h-2.8c0.3-0.1,0.5-0.2,0.6-0.2   c1.5-0.5,1.8-0.7,1.9-0.8c0.5-0.3,0.6-1.1,0.7-1.2c0.1-0.4-0.3-1.1-0.8-1.5c-0.6-0.4-1.4-0.2-1.5-0.1l0,0l-1.4,0.5   c-0.3,0.1-2.7,0.8-3.2,0.9c-0.3,0.1-0.9,0.1-1.3,0.1h-0.1c0.2-0.2,0.4-0.4,0.5-0.5c0.2-0.3,0.7-1,0.9-1.4c0.3-0.5,0.4-1.5,0.4-1.7   c0-0.4-0.2-1-0.5-1.3s-0.5-0.3-0.8-0.4l0,0c-0.6-0.1-1,0.4-1.2,0.7l-0.1,0.1c-0.1,0.1-0.2,0.3-0.3,0.5c-0.2,0.2-0.3,0.5-0.5,0.7   c-0.3,0.3-1.4,0.9-2.7,1.5c-1.3,0.6-2.5,2.6-2.5,2.7s-0.1,0.1-0.1,0.2l0,0h-0.6l0,0l0,0l0,0l0,0c-0.2,0-0.4,0.2-0.4,0.5   c0,0.2,0.2,0.4,0.4,0.5l0,0l0,0l0,0l0,0h0.7c0.4,0,0.6-0.2,0.7-0.3c0.1-0.1,0.2-0.3,0.2-0.4c0.3-0.6,1.2-1.8,2-2.2   c0.4-0.2,2.5-1.1,3-1.7c0.3-0.3,0.5-0.6,0.6-0.8c0.1-0.1,0.2-0.3,0.2-0.3s0.1-0.1,0.1-0.2c0.1-0.1,0.3-0.3,0.4-0.4   c0.3,0.1,0.3,0.1,0.3,0.1c0.1,0.1,0.2,0.5,0.2,0.7s-0.1,1-0.3,1.3c-0.2,0.4-0.6,1-0.8,1.2c-0.1,0.1-0.7,0.6-1.2,1   c-0.1,0.1-0.2,0.3-0.2,0.5s0.2,0.3,0.4,0.3l1.2,0.1l0,0c0.1,0,1.1,0,1.6-0.1c0.4-0.1,2.2-0.7,3.2-0.9l0,0l1.4-0.5   c0.2-0.1,0.6-0.1,0.7,0c0.3,0.2,0.4,0.5,0.4,0.6c0,0.2-0.1,0.5-0.3,0.6c-0.1,0-0.4,0.2-1.7,0.7c-0.4,0.2-3,1.1-3.1,1.1   c-0.2,0.1-0.3,0.3-0.3,0.5s0.2,0.4,0.5,0.4l0,0h5.5c0.1,0,0.7,0.1,0.8,0.6c0,0.1,0.1,0.6-0.4,0.9c-0.1,0-0.6,0.1-1,0.1l-4.9,0.1   c-0.2,0-0.4,0.2-0.4,0.4c0,0.2,0.1,0.4,0.3,0.5l5,1.3c0.1,0.1,0.5,0.3,0.5,0.5c0,0.4-0.3,0.7-0.6,0.7c-0.2,0.1-1.4-0.1-2.3-0.3   l-2.3-0.5c-0.2-0.1-0.4,0.1-0.5,0.3c-0.1,0.2,0,0.4,0.1,0.6l2.6,1.9c0.1,0.2,0.3,0.4,0.2,0.5c-0.3,0.3-0.5,0.4-0.5,0.4   c-0.1,0-0.4-0.1-0.7-0.2l-1.2-0.6l-2.2-1.3l0,0c-0.1,0-0.7-0.4-1.3-0.4c-1.8,0-2.4-0.1-2.5-0.1c-0.5-0.1-2-0.7-2.3-1   c-0.4-0.3-0.7-0.6-0.7-0.6c-0.1-0.1-0.2-0.1-0.3-0.1h-0.8l0,0l0,0l0,0l0,0c-0.2,0-0.4,0.2-0.4,0.5s0.2,0.4,0.4,0.5l0,0l0,0l0,0l0,0   h0.7c0.1,0.1,0.3,0.3,0.6,0.5c0.5,0.4,2.1,1.1,2.7,1.2c0.4,0.1,1.3,0.1,2.8,0.1c0.2,0,0.6,0.2,0.8,0.3l2.3,1.3l0,0l1.3,0.6l0,0   c0.1,0.1,0.6,0.2,0.9,0.2c0,0,0,0,0.1,0c0.4,0,0.9-0.3,1.2-0.8c0.2-0.3,0.4-0.9-0.3-1.7c0,0,0,0-0.1-0.1l-0.8-0.6h0.1   c0.6,0.2,2.2,0.5,2.7,0.3c0.7-0.2,1.2-0.8,1.3-1.6c0-0.9-0.9-1.3-1-1.4c0,0,0,0-0.1,0l-1.8-0.5h1.7l0,0c1.1-0.1,1.3-0.2,1.4-0.3   C296.8,95.8,297.1,95.1,297,94.3z"/>
    </g>
    <g>
        <path class="st15" d="M254.1,85.9c2.5,0,4.5-2,4.5-4.5s-2-4.5-4.5-4.5s-4.5,2-4.5,4.5C249.5,83.9,251.5,85.9,254.1,85.9z M254.1,78   c1.9,0,3.4,1.5,3.4,3.4s-1.5,3.4-3.4,3.4s-3.4-1.5-3.4-3.4C250.7,79.5,252.2,78,254.1,78z"/>
        <path class="st15" d="M265.5,84.6c-0.3-0.3-0.6-0.4-1-0.4c-2.1,0-5,1-6.1,1.4c-1.7,0.6-3.2,1.4-4.3,2c-1.1-0.7-2.6-1.4-4.3-2   c-1.1-0.4-4-1.4-6.1-1.4c-0.8,0-1.4,0.6-1.4,1.4v5.3c0,0.3,0.3,0.6,0.6,0.6s0.6-0.3,0.6-0.6v-5.3c0-0.1,0.1-0.2,0.2-0.2   c1.9,0,4.9,1,5.7,1.3c1.8,0.7,3.4,1.4,4.4,2.1l0.3,0.2l0.3-0.2c1-0.7,2.6-1.4,4.4-2.1c0.8-0.3,3.8-1.3,5.7-1.3c0.1,0,0.1,0,0.1,0.1   l0.1,0.1v11.6c0,0.1-0.1,0.2-0.2,0.2c-1.3,0-3.4,0.5-5.6,1.3c-2.1,0.8-3.9,1.7-4.7,2.4c-0.1,0.1-0.2,0-0.2,0   c-0.6-0.5-0.9-0.7-0.9-0.7c-0.3-0.2-0.6-0.2-0.8,0.1c-0.2,0.3-0.2,0.6,0.1,0.8c0,0,0.3,0.3,0.9,0.7c0.2,0.2,0.5,0.3,0.9,0.3   c0.3,0,0.6-0.1,0.9-0.3c0.7-0.6,2.5-1.5,4.4-2.2c2.1-0.8,4.1-1.3,5.2-1.3c0.8,0,1.4-0.6,1.4-1.4V85.6   C265.9,85.2,265.7,84.9,265.5,84.6z"/>
        <path class="st18" d="M251.3,99.5c0-0.5-0.3-0.8-0.6-1c0.3,0,0.4-0.1,0.4-0.1c0.6-0.4,0.9-1,0.8-1.7c-0.1-0.5-0.4-0.8-0.9-1   c0.3-0.3,0.4-0.8,0.4-0.9c0-0.4-0.2-1-0.7-1.4s-1.2-0.2-1.4-0.1l-1.7,0.4c0,0-0.3,0-0.6,0.1c0,0,0-0.1,0.1-0.1   c0.2-0.2,0.6-0.8,0.7-1.1c0.2-0.4,0.3-1.2,0.3-1.4c0-0.3-0.2-0.9-0.4-1.1c-0.2-0.3-0.5-0.3-0.8-0.4l0,0c-0.5-0.1-0.9,0.3-1.2,0.6   c0,0,0,0.1-0.1,0.1c-0.1,0.1-0.2,0.2-0.3,0.4c-0.1,0.2-0.2,0.4-0.4,0.5c-0.2,0.2-1,0.6-2.1,1.1s-2,2-2.1,2.2l0,0h-0.4l0,0h-0.2l0,0   c-0.2,0.1-0.4,0.3-0.4,0.5s0.1,0.4,0.3,0.5l0,0h0.2l0,0h0.6c0.3,0,0.5-0.2,0.7-0.3c0.1-0.1,0.2-0.3,0.2-0.4   c0.3-0.5,0.9-1.4,1.5-1.7c0.3-0.1,2-0.9,2.4-1.4c0.2-0.2,0.4-0.5,0.5-0.7l0,0c0.1-0.1,0.1-0.2,0.2-0.2l0.1-0.1   c0.1-0.1,0.2-0.2,0.2-0.2h0.1c0,0.1,0.1,0.3,0.2,0.4c0,0.2-0.1,0.8-0.2,0.9c-0.1,0.3-0.5,0.8-0.6,0.9s-0.5,0.4-0.9,0.8   c-0.2,0.1-0.2,0.4-0.2,0.6c0.1,0.2,0.2,0.4,0.5,0.4l0.9,0.1l0,0c0.1,0,0.9-0.1,1.3-0.1c1-0.2,1.3-0.3,1.3-0.3l0,0l0.3-0.1   c0.2,0,0.4,0,0.4,0c0.1,0.1,0.2,0.3,0.3,0.4c0,0.1-0.1,0.3-0.1,0.3s-0.1,0-0.1,0.1c-0.1,0.1-0.5,0.3-0.5,0.4   c-0.2,0.1-0.4,0.3-0.4,0.6c0,0.3,0.3,0.4,0.5,0.4l0.6,0.1c0,0,0.4,0,0.5,0.3c0,0.2,0,0.4-0.2,0.5c-0.1,0-0.4,0.1-0.8,0.1h-0.3   c-0.3,0-0.6,0.3-0.6,0.6c0,0.2,0,0.4,0.4,0.7l0.6,0.5l0,0c0.1,0.1,0.2,0.2,0.3,0.2c0,0.2-0.1,0.2-0.3,0.3l0,0c-0.1,0-0.5,0-0.9,0   c-0.2-0.1-0.5,0.1-0.6,0.3c-0.1,0.2,0,0.5,0.1,0.6l0.5,0.7c0.1,0.1,0.1,0.2,0.1,0.2c-0.1,0.1-0.2,0.2-0.2,0.2   c-0.1,0-0.2-0.1-0.4-0.1l-1.5-0.8c-0.1-0.1-0.6-0.3-1.1-0.3c-1.4,0-1.8-0.1-2-0.1c-0.4-0.1-1.6-0.6-1.8-0.7   c-0.2-0.2-0.6-0.5-0.6-0.5c-0.1-0.1-0.2-0.1-0.3-0.1h-0.7l0,0H240l0,0c-0.2,0.1-0.3,0.3-0.3,0.5s0.1,0.4,0.3,0.5l0,0h0.7   c0.1,0.1,0.2,0.2,0.4,0.4c0.4,0.4,1.8,0.9,2.2,1c0.3,0.1,1.1,0.1,2.2,0.1c0.1,0,0.4,0.1,0.6,0.2l1.3,0.7l0,0l0.2,0.1l0,0   c0.2,0.1,0.5,0.2,0.8,0.2c0,0,0,0,0.1,0c0.4,0,0.8-0.2,1.1-0.7c0.2-0.2,0.3-0.8-0.1-1.4c0.1,0,0.1,0,0.2,0   C250.9,100.5,251.3,100.1,251.3,99.5z"/>
    </g>
    <g>
        <path class="st19" d="M323.1,83.7c1.8,0,3.3-1.5,3.3-3.3s-1.5-3.3-3.3-3.3s-3.3,1.5-3.3,3.3C319.8,82.3,321.2,83.7,323.1,83.7z    M323.1,78.3c1.2,0,2.1,0.9,2.1,2.1s-0.9,2.1-2.1,2.1s-2.1-0.9-2.1-2.1S321.9,78.3,323.1,78.3z"/>
        <path class="st19" d="M330.7,83.9c-0.1,0-0.1,0-0.3,0l-5.8,0.8h-3.3l-5.8-0.8c-0.1,0-0.1,0-0.3,0c-1.1,0-2,0.9-2.1,2   c-0.1,1.3,0.7,2.5,1.8,2.6l5,0.7v2.6l-3.2,7.7c-0.3,0.5-0.3,1.2,0,1.8c0.3,0.7,0.7,1.1,1.3,1.3c0.3,0.1,0.5,0.1,0.9,0.1   c0.9,0,1.8-0.5,2.1-1.5l1.8-4.6l1.8,4.6c0.4,0.9,1.2,1.5,2.1,1.5c0.3,0,0.7,0,0.9-0.1c1.2-0.5,1.7-1.8,1.3-3l-3.2-7.7v-2.5l5-0.7   c0.7-0.1,1.2-0.4,1.5-0.9s0.4-1.1,0.3-1.6C332.9,84.9,331.8,83.9,330.7,83.9z M331,87.5l-6.1,0.8v3.8l3.3,7.9   c0.3,0.5,0,1.3-0.7,1.5c-0.1,0-0.3,0.1-0.4,0.1c-0.4,0-0.9-0.3-1.1-0.7l-3-7.3l-3,7.3c-0.1,0.4-0.7,0.7-1.1,0.7   c-0.1,0-0.3,0-0.4-0.1c-0.5-0.3-0.9-0.9-0.7-1.5l3.3-7.9v-3.8l-6.1-0.8c-0.5-0.1-0.9-0.7-0.8-1.3c0.1-0.5,0.5-1.1,0.9-1.1h0.1   l5.8,0.8h3.4l5.8-0.8h0.1c0.5,0,0.9,0.4,0.9,1.1C331.8,86.8,331.5,87.4,331,87.5z"/>
    </g>
    <g>
        <path class="st20" d="M357.7,93.3c0.7,3.5,3.8,6.1,7.5,6.1c0.7,0,1.3-0.1,2-0.3h0.1c0.1,0,0.2,0,0.3,0.1l2.8,2.1v-3.7   c0-0.1,0.1-0.3,0.2-0.4c1.5-1.4,2.3-3.4,2.3-5.5c0-4.2-3.4-7.6-7.6-7.6c-1,0-2,0.2-2.8,0.6c0,0.3,0.1,0.6,0.1,1   C362.4,89,360.5,91.9,357.7,93.3z"/>
        <path class="st19" d="M365.1,83.1c-1.1,0-2.1,0.2-3,0.6c-0.9-3.8-4.3-6.7-8.4-6.7c-4.7,0-8.6,3.9-8.6,8.6c0,2.3,0.9,4.4,2.5,6v4.5   c0,0.2,0.1,0.4,0.3,0.4c0.1,0,0.1,0.1,0.2,0.1s0.2,0,0.3-0.1l3.4-2.6c0.6,0.2,1.3,0.2,2,0.2c1.1,0,2.1-0.2,3-0.6   c0.9,3.8,4.3,6.7,8.4,6.7c0.7,0,1.3-0.1,2-0.2l3.4,2.6c0.1,0.1,0.2,0.1,0.3,0.1s0.2,0,0.2-0.1c0.2-0.1,0.3-0.3,0.3-0.4v-4.5   c1.6-1.6,2.5-3.8,2.5-6C373.7,87,369.9,83.1,365.1,83.1z M356.6,92.7c-0.9,0.4-1.8,0.6-2.8,0.6c-0.7,0-1.3-0.1-2-0.3   c-0.1,0-0.3,0-0.4,0.1l-2.8,2.1v-3.7c0-0.1-0.1-0.3-0.2-0.4c-1.5-1.4-2.3-3.4-2.3-5.5c0-4.2,3.4-7.6,7.6-7.6c3.7,0,6.7,2.6,7.5,6.1   c0.1,0.3,0.1,0.7,0.1,1.1c0,0.2,0,0.3,0,0.5c0,2.8-1.5,5.3-3.8,6.6C357.2,92.4,356.9,92.6,356.6,92.7z M370.4,97.2   c-0.1,0.1-0.2,0.2-0.2,0.4v3.7l-2.8-2.1c-0.1-0.1-0.2-0.1-0.3-0.1H367c-0.6,0.2-1.3,0.3-2,0.3c-3.7,0-6.7-2.6-7.5-6.1   c2.8-1.4,4.7-4.3,4.7-7.7c0-0.3,0-0.6-0.1-1c0.9-0.4,1.8-0.6,2.8-0.6c4.2,0,7.6,3.4,7.6,7.6C372.8,93.8,371.9,95.8,370.4,97.2z"/>
        <path class="st21" d="M354.6,81.4c-0.2-0.3-0.4-0.5-0.7-0.5c-0.1,0-0.2,0-0.3,0.1l0,0l0,0c-0.2,0-0.3,0.2-0.3,0.3l0,0l0,0l-2.9,7.5   c-0.1,0.2-0.1,0.4,0,0.6s0.2,0.3,0.4,0.4c0.1,0.1,0.2,0.1,0.3,0.1c0.3,0,0.5-0.2,0.7-0.5l0.5-1.2v-0.1h0.1h2.9h0.1v0.1l0.5,1.2   c0.2,0.3,0.4,0.5,0.7,0.5c0.1,0,0.2,0,0.3-0.1c0.2-0.1,0.4-0.3,0.4-0.4c0.1-0.2,0.1-0.4,0-0.6L354.6,81.4z M354.5,86.5H353h-0.2   l0.1-0.2l0.7-1.9l0.1-0.3l0.1,0.3l0.7,1.9l0.1,0.2H354.5z"/>
        <path class="st21" d="M369.3,89.1c0-0.4-0.4-0.5-0.7-0.5H366h-0.1v-0.1v-0.9c0-0.4-0.4-0.7-0.7-0.7c-0.3,0-0.7,0.4-0.7,0.7v0.9v0.1   h-0.1h-2.6c-0.4,0-0.7,0.4-0.7,0.7c0,0.4,0.4,0.7,0.7,0.7h4.9h0.2v0.1c-0.2,1-0.8,2.1-1.5,2.9l-0.1,0.1l-0.1-0.1   c-0.1-0.1-0.2-0.3-0.3-0.4c-0.1-0.2-0.2-0.3-0.3-0.4l0,0l0,0c-0.1-0.2-0.3-0.3-0.5-0.3c-0.1,0-0.3,0-0.3,0.1l0,0l0,0   c-0.2,0.1-0.3,0.2-0.3,0.4c0,0.2,0,0.3,0.1,0.5c0.2,0.4,0.4,0.6,0.8,1l0.1,0.1l-0.1,0.1c-0.5,0.5-1.2,0.9-1.8,1.1   c-0.4,0.2-0.3,0.6-0.1,0.9c0.2,0.4,0.5,0.4,0.9,0.4c0.9-0.4,1.5-0.9,2.1-1.5l0.1-0.1l0.1,0.1c0.6,0.6,1.2,1,2.1,1.5   c0.1,0,0.2,0.1,0.3,0.1c0.3,0,0.5-0.2,0.6-0.4c0.2-0.4,0-0.7-0.4-0.9c-0.5-0.2-0.8-0.4-1.2-0.7c-0.2-0.1-0.3-0.2-0.5-0.4l-0.1-0.1   l0.1-0.1c0.9-0.9,1.6-2.2,2.1-4v-0.1h0.1C369,89.8,369.3,89.4,369.3,89.1z"/>
    </g>
    <g id="Ebene_2_00000157281893691865763210000004638147246741294237_">
        <path class="st22" d="M442.9,89.8c-0.2,0-0.4-0.1-0.4-0.3c-0.1-0.2,0.1-0.5,0.3-0.6l1.2-0.4c0.2-0.1,0.5-0.2,0.6-0.3   c0,0,0.2-0.2,0.1-0.6c0-0.1-0.3-0.2-0.5-0.2l-3.2,0.3c-0.2,0-0.4-0.1-0.5-0.3s0-0.4,0.2-0.5l2.1-1.1c0.8-0.4,1.8-1.1,1.9-1.3   c0.2-0.3,0.2-0.6-0.1-1c-0.1-0.2-0.5-0.1-0.7,0l-4.5,2.4c-0.2,0.1-0.5,0-0.6-0.1c-0.1-0.2-0.1-0.4,0.1-0.6l3.6-3.4   c0.3-0.3,0.6-0.7,0.7-0.8c0.2-0.6-0.2-0.9-0.3-0.9c-0.4-0.3-0.9,0.1-1,0.1l-4,3.7c-0.2,0.2-0.4,0.2-0.6,0c-0.2-0.1-0.2-0.4-0.1-0.6   c0.1-0.1,1.4-2.5,1.6-2.9c0.7-1.2,0.8-1.6,0.8-1.7s-0.1-0.4-0.2-0.6c-0.1-0.1-0.4-0.2-0.7-0.2c-0.2,0-0.5,0.3-0.6,0.5l-0.7,1.3l0,0   c-0.5,0.8-1.5,2.5-1.7,2.8c-0.3,0.5-1,1.1-1.1,1.2l0,0l-1,0.7c-0.2,0.1-0.4,0.1-0.5,0c-0.2-0.1-0.2-0.3-0.2-0.5   c0.1-0.6,0.2-1.4,0.2-1.6c0-0.3-0.1-1.1-0.2-1.5c-0.1-0.3-0.5-1-0.6-1.1s-0.5-0.3-0.6-0.3s-0.1,0-0.3,0.1c0,0.1,0,0.4,0,0.5   s0,0.1,0,0.2s0,0.2,0.1,0.4c0,0.3,0.1,0.7,0.1,1c0,0.7-0.7,2.5-1.1,3.3c-0.3,0.6-0.2,1.2-0.1,2c0,0.3-0.1,0.5-0.4,0.5   s-0.5-0.1-0.5-0.4s-0.3-1.5,0.2-2.5s1-2.5,1-2.9c0-0.3,0-0.6-0.1-0.9c0-0.2-0.1-0.4-0.1-0.6c0,0,0-0.1,0-0.2c0-0.4,0-1.1,0.5-1.3   l0,0c0.3-0.2,0.5-0.3,0.9-0.3s1,0.4,1.2,0.6c0.1,0.2,0.7,1,0.8,1.5c0.1,0.4,0.2,1.3,0.2,1.6c0,0.1,0,0.4-0.1,0.7l0.1-0.1   c0.3-0.2,0.7-0.7,0.9-0.9c0.2-0.4,1.6-2.6,1.7-2.8l0.7-1.3l0,0c0.1-0.1,0.5-0.8,1.2-0.9s1.4,0.2,1.6,0.6c0.1,0.1,0.5,0.8,0.3,1.4   c0,0.1-0.1,0.4-0.9,1.9c0,0.1-0.2,0.3-0.3,0.5l2-1.9l0,0c0,0,0.3-0.2,0.7-0.4c0.5-0.2,1.1-0.1,1.5,0.2c0.7,0.5,0.9,1.2,0.6,2   c0,0.1-0.1,0.3-0.9,1.1l0,0l-1.2,1.2l1.7-0.9c0,0,0,0,0.1,0s1.1-0.4,1.7,0.3c0.5,0.6,0.5,1.4,0.1,2c-0.3,0.5-1.7,1.3-2.2,1.6h-0.1   l1-0.1h0.1c1,0.1,1.3,0.7,1.3,1.1c0,0.6-0.1,1.2-0.5,1.4c-0.2,0.2-0.7,0.4-0.8,0.4l0,0l-1.2,0.4C443,89.8,443,89.8,442.9,89.8z    M443.2,80.8L443.2,80.8L443.2,80.8z"/>
        <path class="st22" d="M443.2,94.3c-0.1-0.5-0.4-0.9-1-1.2c-0.4-0.2-0.7-0.2-0.7-0.2l0,0h-2.8c0.3-0.1,0.5-0.2,0.6-0.2   c1.5-0.5,1.8-0.7,1.9-0.8c0.5-0.3,0.6-1.1,0.7-1.2c0.1-0.4-0.3-1.1-0.8-1.5c-0.6-0.4-1.4-0.2-1.5-0.1l0,0l-1.4,0.5   c-0.3,0.1-2.7,0.8-3.2,0.9c-0.3,0.1-0.9,0.1-1.3,0.1h-0.1c0.2-0.2,0.4-0.4,0.5-0.5c0.2-0.3,0.7-1,0.9-1.4c0.3-0.5,0.4-1.5,0.4-1.7   c0-0.4-0.2-1-0.5-1.3s-0.5-0.3-0.8-0.4l0,0c-0.6-0.1-1,0.4-1.2,0.7l-0.1,0.1c-0.1,0.1-0.2,0.3-0.3,0.5c-0.2,0.2-0.3,0.5-0.5,0.7   c-0.3,0.3-1.4,0.9-2.7,1.5c-1.3,0.6-2.5,2.6-2.5,2.7s-0.1,0.1-0.1,0.2l0,0h-0.6l0,0l0,0l0,0l0,0c-0.2,0-0.4,0.2-0.4,0.5   c0,0.2,0.2,0.4,0.4,0.5l0,0l0,0l0,0l0,0h0.7c0.4,0,0.6-0.2,0.7-0.3c0.1-0.1,0.2-0.3,0.2-0.4c0.3-0.6,1.2-1.8,2-2.2   c0.4-0.2,2.5-1.1,3-1.7c0.3-0.3,0.5-0.6,0.6-0.8c0.1-0.1,0.2-0.3,0.2-0.3s0.1-0.1,0.1-0.2c0.1-0.1,0.3-0.3,0.4-0.4   c0.3,0.1,0.3,0.1,0.3,0.1c0.1,0.1,0.2,0.5,0.2,0.7s-0.1,1-0.3,1.3c-0.2,0.4-0.6,1-0.8,1.2c-0.1,0.1-0.7,0.6-1.2,1   c-0.1,0.1-0.2,0.3-0.2,0.5s0.2,0.3,0.4,0.3l1.2,0.1l0,0c0.1,0,1.1,0,1.6-0.1c0.4-0.1,2.2-0.7,3.2-0.9l0,0l1.4-0.5   c0.2-0.1,0.6-0.1,0.7,0c0.3,0.2,0.4,0.5,0.4,0.6c0,0.2-0.1,0.5-0.3,0.6c-0.1,0-0.4,0.2-1.7,0.7c-0.4,0.2-3,1.1-3.1,1.1   c-0.2,0.1-0.3,0.3-0.3,0.5s0.2,0.4,0.5,0.4l0,0h5.5c0.1,0,0.7,0.1,0.8,0.6c0,0.1,0.1,0.6-0.4,0.9c-0.1,0-0.6,0.1-1,0.1l-4.9,0.1   c-0.2,0-0.4,0.2-0.4,0.4c0,0.2,0.1,0.4,0.3,0.5l5,1.3c0.1,0.1,0.5,0.3,0.5,0.5c0,0.4-0.3,0.7-0.6,0.7c-0.2,0.1-1.4-0.1-2.3-0.3   l-2.3-0.5c-0.2-0.1-0.4,0.1-0.5,0.3c-0.1,0.2,0,0.4,0.1,0.6l2.6,1.9c0.1,0.2,0.3,0.4,0.2,0.5c-0.3,0.3-0.5,0.4-0.5,0.4   c-0.1,0-0.4-0.1-0.7-0.2l-1.2-0.6l-2.2-1.3l0,0c-0.1,0-0.7-0.4-1.3-0.4c-1.8,0-2.4-0.1-2.5-0.1c-0.5-0.1-2-0.7-2.3-1   c-0.4-0.3-0.7-0.6-0.7-0.6c-0.1-0.1-0.2-0.1-0.3-0.1h-0.8l0,0l0,0l0,0l0,0c-0.2,0-0.4,0.2-0.4,0.5s0.2,0.4,0.4,0.5l0,0l0,0l0,0l0,0   h0.7c0.1,0.1,0.3,0.3,0.6,0.5c0.5,0.4,2.1,1.1,2.7,1.2c0.4,0.1,1.3,0.1,2.8,0.1c0.2,0,0.6,0.2,0.8,0.3l2.3,1.3l0,0l1.3,0.6l0,0   c0.1,0.1,0.6,0.2,0.9,0.2c0,0,0,0,0.1,0c0.4,0,0.9-0.3,1.2-0.8c0.2-0.3,0.4-0.9-0.3-1.7c0,0,0,0-0.1-0.1l-0.8-0.6h0.1   c0.6,0.2,2.2,0.5,2.7,0.3c0.7-0.2,1.2-0.8,1.3-1.6c0-0.9-0.9-1.3-1-1.4c0,0,0,0-0.1,0l-1.8-0.5h1.7l0,0c1.1-0.1,1.3-0.2,1.4-0.3   C443,95.8,443.3,95.1,443.2,94.3z"/>
    </g>
    <g>
        <path class="st19" d="M400.3,85.9c2.5,0,4.5-2,4.5-4.5s-2-4.5-4.5-4.5s-4.5,2-4.5,4.5C395.7,83.9,397.7,85.9,400.3,85.9z M400.3,78   c1.9,0,3.4,1.5,3.4,3.4s-1.5,3.4-3.4,3.4s-3.4-1.5-3.4-3.4S398.4,78,400.3,78z"/>
        <path class="st19" d="M411.7,84.6c-0.3-0.3-0.6-0.4-1-0.4c-2.1,0-5,1-6.1,1.4c-1.7,0.6-3.2,1.4-4.3,2c-1.1-0.7-2.6-1.4-4.3-2   c-1.1-0.4-4-1.4-6.1-1.4c-0.8,0-1.4,0.6-1.4,1.4v5.3c0,0.3,0.3,0.6,0.6,0.6c0.3,0,0.6-0.3,0.6-0.6v-5.3c0-0.1,0.1-0.2,0.2-0.2   c1.9,0,4.9,1,5.7,1.3c1.8,0.7,3.4,1.4,4.4,2.1l0.3,0.2l0.3-0.2c1-0.7,2.6-1.4,4.4-2.1c0.8-0.3,3.8-1.3,5.7-1.3c0.1,0,0.1,0,0.1,0.1   l0.1,0.1v11.6c0,0.1-0.1,0.2-0.2,0.2c-1.3,0-3.4,0.5-5.6,1.3c-2.1,0.8-3.9,1.7-4.7,2.4c-0.1,0.1-0.2,0-0.2,0   c-0.6-0.5-0.9-0.7-0.9-0.7c-0.3-0.2-0.6-0.2-0.8,0.1c-0.2,0.3-0.2,0.6,0.1,0.8c0,0,0.3,0.3,0.9,0.7c0.2,0.2,0.5,0.3,0.9,0.3   c0.3,0,0.6-0.1,0.9-0.3c0.7-0.6,2.5-1.5,4.4-2.2c2.1-0.8,4.1-1.3,5.2-1.3c0.8,0,1.4-0.6,1.4-1.4V85.6   C412.1,85.2,411.9,84.9,411.7,84.6z"/>
        <path class="st22" d="M397.5,99.5c0-0.5-0.3-0.8-0.6-1c0.3,0,0.4-0.1,0.4-0.1c0.6-0.4,0.9-1,0.8-1.7c-0.1-0.5-0.4-0.8-0.9-1   c0.3-0.3,0.4-0.8,0.4-0.9c0-0.4-0.2-1-0.7-1.4s-1.2-0.2-1.4-0.1l-1.7,0.4c0,0-0.3,0-0.6,0.1c0,0,0-0.1,0.1-0.1   c0.2-0.2,0.6-0.8,0.7-1.1c0.2-0.4,0.3-1.2,0.3-1.4c0-0.3-0.2-0.9-0.4-1.1c-0.2-0.3-0.5-0.3-0.8-0.4l0,0c-0.5-0.1-0.9,0.3-1.2,0.6   c0,0,0,0.1-0.1,0.1c-0.1,0.1-0.2,0.2-0.3,0.4c-0.1,0.2-0.2,0.4-0.4,0.5c-0.2,0.2-1,0.6-2.1,1.1s-2,2-2.1,2.2l0,0h-0.4l0,0h-0.2l0,0   c-0.2,0.1-0.4,0.3-0.4,0.5s0.1,0.4,0.3,0.5l0,0h0.2l0,0h0.6c0.3,0,0.5-0.2,0.7-0.3c0.1-0.1,0.2-0.3,0.2-0.4   c0.3-0.5,0.9-1.4,1.5-1.7c0.3-0.1,2-0.9,2.4-1.4c0.2-0.2,0.4-0.5,0.5-0.7l0,0c0.1-0.1,0.1-0.2,0.2-0.2l0.1-0.1   c0.1-0.1,0.2-0.2,0.2-0.2h0.1c0,0.1,0.1,0.3,0.2,0.4c0,0.2-0.1,0.8-0.2,0.9c-0.1,0.3-0.5,0.8-0.6,0.9s-0.5,0.4-0.9,0.8   c-0.2,0.1-0.2,0.4-0.2,0.6c0.1,0.2,0.2,0.4,0.5,0.4l0.9,0.1l0,0c0.1,0,0.9-0.1,1.3-0.1c1-0.2,1.3-0.3,1.3-0.3l0,0l0.3-0.1   c0.2,0,0.4,0,0.4,0c0.1,0.1,0.2,0.3,0.3,0.4c0,0.1-0.1,0.3-0.1,0.3s-0.1,0-0.1,0.1c-0.1,0.1-0.5,0.3-0.5,0.4   c-0.2,0.1-0.4,0.3-0.4,0.6c0,0.3,0.3,0.4,0.5,0.4l0.6,0.1c0,0,0.4,0,0.5,0.3c0,0.2,0,0.4-0.2,0.5c-0.1,0-0.4,0.1-0.8,0.1h-0.3   c-0.3,0-0.6,0.3-0.6,0.6c0,0.2,0,0.4,0.4,0.7l0.6,0.5l0,0c0.1,0.1,0.2,0.2,0.3,0.2c0,0.2-0.1,0.2-0.3,0.3l0,0c-0.1,0-0.5,0-0.9,0   c-0.2-0.1-0.5,0.1-0.6,0.3c-0.1,0.2,0,0.5,0.1,0.6l0.5,0.7c0.1,0.1,0.1,0.2,0.1,0.2c-0.1,0.1-0.2,0.2-0.2,0.2   c-0.1,0-0.2-0.1-0.4-0.1l-1.5-0.8c-0.1-0.1-0.6-0.3-1.1-0.3c-1.4,0-1.8-0.1-2-0.1c-0.4-0.1-1.6-0.6-1.8-0.7   c-0.2-0.2-0.6-0.5-0.6-0.5c-0.1-0.1-0.2-0.1-0.3-0.1h-0.7l0,0h-0.2l0,0c-0.2,0.1-0.3,0.3-0.3,0.5s0.1,0.4,0.3,0.5l0,0h0.7   c0.1,0.1,0.2,0.2,0.4,0.4c0.4,0.4,1.8,0.9,2.2,1c0.3,0.1,1.1,0.1,2.2,0.1c0.1,0,0.4,0.1,0.6,0.2l1.3,0.7l0,0l0.2,0.1l0,0   c0.2,0.1,0.5,0.2,0.8,0.2c0,0,0,0,0.1,0c0.4,0,0.8-0.2,1.1-0.7c0.2-0.2,0.3-0.8-0.1-1.4c0.1,0,0.1,0,0.2,0   C397.1,100.5,397.5,100.1,397.5,99.5z"/>
    </g>
    <path class="st1" d="M896.2,41.1h23.5c0.5,0,0.9-0.4,0.9-0.9s-0.4-0.9-0.9-0.9h-23.5c-0.5,0-0.9,0.4-0.9,0.9S895.7,41.1,896.2,41.1z  "/>
    <path class="st1" d="M919.8,59.3h-23.5c-0.5,0-0.9,0.4-0.9,0.9s0.4,0.9,0.9,0.9h23.5c0.5,0,0.9-0.4,0.9-0.9S920.3,59.3,919.8,59.3z"/>
    <path class="st1" d="M919.8,49.3h-23.5c-0.5,0-0.9,0.4-0.9,0.9s0.4,0.9,0.9,0.9h23.5c0.5,0,0.9-0.4,0.9-0.9S920.3,49.3,919.8,49.3z"/>
    <path class="st1" d="M1126.6,57.4l-8.3-8.3l8.3-8.3c0.4-0.4,0.4-0.9,0-1.3c-0.4-0.3-0.9-0.4-1.3,0l-8.3,8.3l-0.1-0.1l-8.2-8.2  c-0.4-0.3-0.9-0.4-1.3,0s-0.4,0.9,0,1.3l8.3,8.3l-8.3,8.3c-0.2,0.2-0.3,0.4-0.3,0.6s0.1,0.5,0.3,0.6c0.2,0.2,0.4,0.3,0.6,0.3  s0.5-0.1,0.6-0.3l8.3-8.3l0.1,0.1l8.2,8.2c0.2,0.2,0.4,0.3,0.6,0.3s0.5-0.1,0.6-0.3c0.2-0.2,0.3-0.4,0.3-0.6  S1126.7,57.6,1126.6,57.4z"/>
    <path class="st0" d="M1156.6,57.4l-8.3-8.3l8.3-8.3c0.4-0.4,0.4-0.9,0-1.3c-0.4-0.3-0.9-0.4-1.3,0l-8.3,8.3l-0.1-0.1l-8.2-8.2  c-0.4-0.3-0.9-0.4-1.3,0s-0.4,0.9,0,1.3l8.3,8.3l-8.3,8.3c-0.2,0.2-0.3,0.4-0.3,0.6s0.1,0.5,0.3,0.6c0.2,0.2,0.4,0.3,0.6,0.3  s0.5-0.1,0.6-0.3l8.3-8.3l0.1,0.1l8.2,8.2c0.2,0.2,0.4,0.3,0.6,0.3s0.5-0.1,0.6-0.3c0.2-0.2,0.3-0.4,0.3-0.6  S1156.7,57.6,1156.6,57.4z"/>
    <g>
        <path class="st1" d="M483.6,89.5L471,76.9c-0.8-0.8-2.1-0.8-2.9,0l-12.6,12.6c-0.3,0.3-0.3,0.9,0,1.2s0.9,0.3,1.2,0l12.6-12.6   c0.1-0.1,0.3-0.1,0.4,0l12.6,12.6c0.2,0.2,0.4,0.3,0.6,0.3s0.4-0.1,0.6-0.3C484,90.4,484,89.8,483.6,89.5z"/>
        <path class="st1" d="M474.3,78.8h3.2V82c0,0.5,0.4,0.9,0.9,0.9s0.9-0.4,0.9-0.9v-3.5c0-0.8-0.7-1.5-1.5-1.5h-3.5   c-0.5,0-0.9,0.4-0.9,0.9S473.8,78.8,474.3,78.8z"/>
        <path class="st1" d="M481.9,101.4h-1.5V91.3c0-0.5-0.4-0.9-0.9-0.9s-0.9,0.4-0.9,0.9v10.2h-6.9l0.4-3.5h1c0.5,0,0.9-0.4,0.9-0.9   v-2.9c0-1.9-1.2-3.5-2.9-4.1c1.2-0.6,2-1.8,2-3.2c0-1.9-1.6-3.5-3.5-3.5s-3.5,1.6-3.5,3.5c0,1.4,0.8,2.6,2,3.2   c-1.7,0.6-2.9,2.2-2.9,4.1v2.9c0,0.5,0.4,0.9,0.9,0.9h1l0.4,3.5h-6.9V90.7c0-0.5-0.4-0.9-0.9-0.9s-0.9,0.4-0.9,0.9v10.8h-1.5   c-0.5,0-0.9,0.4-0.9,0.9s0.4,0.9,0.9,0.9h2.3h19.8h2.3c0.5,0,0.9-0.4,0.9-0.9S482.3,101.4,481.9,101.4z M469.6,85.2   c1,0,1.7,0.8,1.7,1.7c0,1-0.8,1.7-1.7,1.7s-1.7-0.8-1.7-1.7C467.9,85.9,468.7,85.2,469.6,85.2z M467,96.2v-2c0-1.4,1.2-2.6,2.6-2.6   s2.6,1.2,2.6,2.6v2h-0.9c-0.4,0-0.8,0.3-0.9,0.8l-0.5,4.5h-0.8l-0.5-4.5c0-0.4-0.4-0.8-0.9-0.8H467z"/>
    </g>
    <g>
        <path class="st0" d="M523.6,89.5L511,76.9c-0.8-0.8-2.1-0.8-2.9,0l-12.6,12.6c-0.3,0.3-0.3,0.9,0,1.2s0.9,0.3,1.2,0l12.6-12.6   c0.1-0.1,0.3-0.1,0.4,0l12.6,12.6c0.2,0.2,0.4,0.3,0.6,0.3s0.4-0.1,0.6-0.3C524,90.4,524,89.8,523.6,89.5z"/>
        <path class="st0" d="M514.3,78.8h3.2V82c0,0.5,0.4,0.9,0.9,0.9s0.9-0.4,0.9-0.9v-3.5c0-0.8-0.7-1.5-1.5-1.5h-3.5   c-0.5,0-0.9,0.4-0.9,0.9S513.8,78.8,514.3,78.8z"/>
        <path class="st0" d="M521.9,101.4h-1.5V91.3c0-0.5-0.4-0.9-0.9-0.9s-0.9,0.4-0.9,0.9v10.2h-6.9l0.4-3.5h1c0.5,0,0.9-0.4,0.9-0.9   v-2.9c0-1.9-1.2-3.5-2.9-4.1c1.2-0.6,2-1.8,2-3.2c0-1.9-1.6-3.5-3.5-3.5s-3.5,1.6-3.5,3.5c0,1.4,0.8,2.6,2,3.2   c-1.7,0.6-2.9,2.2-2.9,4.1v2.9c0,0.5,0.4,0.9,0.9,0.9h1l0.4,3.5h-6.9V90.7c0-0.5-0.4-0.9-0.9-0.9s-0.9,0.4-0.9,0.9v10.8h-1.5   c-0.5,0-0.9,0.4-0.9,0.9s0.4,0.9,0.9,0.9h2.3h19.8h2.3c0.5,0,0.9-0.4,0.9-0.9S522.3,101.4,521.9,101.4z M509.6,85.2   c1,0,1.7,0.8,1.7,1.7c0,1-0.8,1.7-1.7,1.7s-1.7-0.8-1.7-1.7C507.9,85.9,508.7,85.2,509.6,85.2z M507,96.2v-2c0-1.4,1.2-2.6,2.6-2.6   s2.6,1.2,2.6,2.6v2h-0.9c-0.4,0-0.8,0.3-0.9,0.8l-0.5,4.5h-0.8l-0.5-4.5c0-0.4-0.4-0.8-0.9-0.8H507z"/>
    </g>
    <g>
        <path class="st0" d="M1273.5,45.5c0-4.8-3.1-6.2-3.1-6.2c-1.6-0.7-4.3-1-7.1-1.1h-0.1c-2.8,0-5.5,0.3-7.1,1.1c0,0-3.1,1.4-3.1,6.2   c0,1.1,0,2.4,0,3.8c0.1,4.7,0.9,9.3,5.2,10.4c2,0.5,3.7,0.6,5.1,0.6c2.5-0.1,3.9-0.9,3.9-0.9l-0.1-1.8c0,0-1.8,0.6-3.8,0.5   c-2-0.1-4.1-0.2-4.4-2.6c0-0.2,0-0.4,0-0.7c0,0,1.9,0.5,4.4,0.6c1.5,0.1,2.9-0.1,4.4-0.3c2.8-0.3,5.2-2,5.5-3.6   C1273.6,49,1273.5,45.5,1273.5,45.5z M1269.8,51.7h-2.3v-5.6c0-1.2-0.5-1.8-1.5-1.8c-1.1,0-1.7,0.7-1.7,2.1v3.1h-2.3v-3.1   c0-1.4-0.6-2.1-1.7-2.1c-1,0-1.5,0.6-1.5,1.8v5.6h-2.3v-5.8c0-1.2,0.3-2.1,0.9-2.8c0.6-0.7,1.4-1.1,2.5-1.1c1.2,0,2.1,0.5,2.6,1.4   l0.6,1l0.6-1c0.6-0.9,1.5-1.4,2.6-1.4c1,0,1.8,0.4,2.5,1.1c0.6,0.7,0.9,1.6,0.9,2.8V51.7z"/>
    </g>
    </svg>